999
dxfrw 0.5.11
0
SECTION
2
HEADER
9
$ACADVER
1
AC1021
9
$HANDSEED
5
20000
9
$DWGCODEPAGE
3
ANSI_1252
9
$INSBASE
10
0
20
0
30
0
9
$EXTMIN
10
0
20
170
30
0
9
$EXTMAX
10
1205.91907989
20
693.476634704
30
0
9
$LIMMIN
10
0
20
0
9
$LIMMAX
10
420
20
297
9
$ORTHOMODE
70
0
9
$LTSCALE
40
1
9
$TEXTSTYLE
7
STANDARD
9
$CLAYER
8
radio panel
9
$DIMASZ
40
2.5
9
$DIMLFAC
40
1
9
$DIMSCALE
40
1
9
$DIMEXO
40
0.625
9
$DIMEXE
40
1
9
$DIMTXT
40
5
9
$DIMTSZ
40
0
9
$DIMAUNIT
70
0
9
$DIMADEC
70
2
9
$DIMLUNIT
70
2
9
$DIMSTYLE
2
STANDARD
9
$DIMGAP
40
5
9
$DIMTIH
70
1
9
$LUNITS
70
2
9
$LUPREC
70
2
9
$AUNITS
70
0
9
$AUPREC
70
2
9
$SPLINESEGS
70
8
9
$GRIDMODE
70
0
9
$SNAPSTYLE
70
0
9
$GRIDUNIT
10
0
20
0
9
$PINSBASE
10
30.8400649614
20
-76.316045951
30
0
9
$PLIMMIN
10
0
20
0
9
$PLIMMAX
10
297
20
210
9
$INSUNITS
70
0
9
$PSVPSCALE
40
0.546245111106
0
ENDSEC
0
SECTION
2
CLASSES
0
ENDSEC
0
SECTION
2
TABLES
0
TABLE
2
VPORT
5
8
330
0
100
AcDbSymbolTable
70
1
0
VPORT
5
31
330
2
100
AcDbSymbolTableRecord
100
AcDbViewportTableRecord
2
*ACTIVE
70
0
10
0
20
0
11
1
21
1
12
430.653542024
22
236.279893657
13
0
23
0
14
10
24
10
15
10
25
10
16
0
26
0
36
1
17
0
27
0
37
0
40
468.993298354
41
2.09505703422
42
50
43
0
44
0
50
0
51
0
71
0
72
100
73
1
74
3
75
0
76
0
77
0
78
0
281
0
65
1
110
0
120
0
130
0
111
1
121
0
131
0
112
0
122
1
132
0
79
0
146
0
348
10020
60
7
61
5
292
1
282
1
141
0
142
0
63
250
421
3358443
0
ENDTAB
0
TABLE
2
LTYPE
5
5
330
0
100
AcDbSymbolTable
70
4
0
LTYPE
5
14
330
5
100
AcDbSymbolTableRecord
100
AcDbLinetypeTableRecord
2
ByBlock
70
0
3

72
65
73
0
40
0
0
LTYPE
5
15
330
5
100
AcDbSymbolTableRecord
100
AcDbLinetypeTableRecord
2
ByLayer
70
0
3

72
65
73
0
40
0
0
LTYPE
5
16
330
5
100
AcDbSymbolTableRecord
100
AcDbLinetypeTableRecord
2
Continuous
70
0
3
Solid line
72
65
73
0
40
0
0
LTYPE
5
32
330
5
100
AcDbSymbolTableRecord
100
AcDbLinetypeTableRecord
2
DOT
70
0
3
Dot . . . . . . . . . . . . . . . . . . . . . .
72
65
73
2
40
6.35
49
0
74
0
49
-6.35
74
0
0
LTYPE
5
33
330
5
100
AcDbSymbolTableRecord
100
AcDbLinetypeTableRecord
2
DOT2
70
0
3
Dot (.5x) .....................................
72
65
73
2
40
3.175
49
0
74
0
49
-3.175
74
0
0
LTYPE
5
34
330
5
100
AcDbSymbolTableRecord
100
AcDbLinetypeTableRecord
2
DOTX2
70
0
3
Dot (2x) .  .  .  .  .  .  .  .  .  .  .  .  .
72
65
73
2
40
12.7
49
0
74
0
49
-12.7
74
0
0
LTYPE
5
35
330
5
100
AcDbSymbolTableRecord
100
AcDbLinetypeTableRecord
2
DASHED
70
0
3
Dot . . . . . . . . . . . . . . . . . . . . . .
72
65
73
2
40
19.05
49
12.7
74
0
49
-6.35
74
0
0
LTYPE
5
36
330
5
100
AcDbSymbolTableRecord
100
AcDbLinetypeTableRecord
2
DASHED2
70
0
3
Dashed (.5x) _ _ _ _ _ _ _ _ _ _ _ _ _ _ _ _ _
72
65
73
2
40
9.525
49
6.35
74
0
49
-3.175
74
0
0
LTYPE
5
37
330
5
100
AcDbSymbolTableRecord
100
AcDbLinetypeTableRecord
2
DASHEDX2
70
0
3
Dashed (2x) ____  ____  ____  ____  ____  ___
72
65
73
2
40
38.1
49
25.4
74
0
49
-12.7
74
0
0
LTYPE
5
38
330
5
100
AcDbSymbolTableRecord
100
AcDbLinetypeTableRecord
2
DASHDOT
70
0
3
Dash dot __ . __ . __ . __ . __ . __ . __ . __
72
65
73
4
40
25.4
49
12.7
74
0
49
-6.35
74
0
49
0
74
0
49
-6.35
74
0
0
LTYPE
5
39
330
5
100
AcDbSymbolTableRecord
100
AcDbLinetypeTableRecord
2
DASHDOT2
70
0
3
Dash dot (.5x) _._._._._._._._._._._._._._._.
72
65
73
4
40
12.7
49
6.35
74
0
49
-3.175
74
0
49
0
74
0
49
-3.175
74
0
0
LTYPE
5
3A
330
5
100
AcDbSymbolTableRecord
100
AcDbLinetypeTableRecord
2
DASHDOTX2
70
0
3
Dash dot (2x) ____  .  ____  .  ____  .  ___
72
65
73
4
40
50.8
49
25.4
74
0
49
-12.7
74
0
49
0
74
0
49
-12.7
74
0
0
LTYPE
5
3B
330
5
100
AcDbSymbolTableRecord
100
AcDbLinetypeTableRecord
2
DIVIDE
70
0
3
Divide ____ . . ____ . . ____ . . ____ . . ____
72
65
73
6
40
31.75
49
12.7
74
0
49
-6.35
74
0
49
0
74
0
49
-6.35
74
0
49
0
74
0
49
-6.35
74
0
0
LTYPE
5
3C
330
5
100
AcDbSymbolTableRecord
100
AcDbLinetypeTableRecord
2
DIVIDE2
70
0
3
Divide (.5x) __..__..__..__..__..__..__..__.._
72
65
73
6
40
15.875
49
6.35
74
0
49
-3.175
74
0
49
0
74
0
49
-3.175
74
0
49
0
74
0
49
-3.175
74
0
0
LTYPE
5
3D
330
5
100
AcDbSymbolTableRecord
100
AcDbLinetypeTableRecord
2
DIVIDEX2
70
0
3
Divide (2x) ________  .  .  ________  .  .  _
72
65
73
6
40
63.5
49
25.4
74
0
49
-12.7
74
0
49
0
74
0
49
-12.7
74
0
49
0
74
0
49
-12.7
74
0
0
LTYPE
5
3E
330
5
100
AcDbSymbolTableRecord
100
AcDbLinetypeTableRecord
2
BORDER
70
0
3
Border __ __ . __ __ . __ __ . __ __ . __ __ .
72
65
73
6
40
44.45
49
12.7
74
0
49
-6.35
74
0
49
12.7
74
0
49
-6.35
74
0
49
0
74
0
49
-6.35
74
0
0
LTYPE
5
3F
330
5
100
AcDbSymbolTableRecord
100
AcDbLinetypeTableRecord
2
BORDER2
70
0
3
Border (.5x) __.__.__.__.__.__.__.__.__.__.__.
72
65
73
6
40
22.225
49
6.35
74
0
49
-3.175
74
0
49
6.35
74
0
49
-3.175
74
0
49
0
74
0
49
-3.175
74
0
0
LTYPE
5
40
330
5
100
AcDbSymbolTableRecord
100
AcDbLinetypeTableRecord
2
BORDERX2
70
0
3
Border (2x) ____  ____  .  ____  ____  .  ___
72
65
73
6
40
88.9
49
25.4
74
0
49
-12.7
74
0
49
25.4
74
0
49
-12.7
74
0
49
0
74
0
49
-12.7
74
0
0
LTYPE
5
41
330
5
100
AcDbSymbolTableRecord
100
AcDbLinetypeTableRecord
2
CENTER
70
0
3
Center ____ _ ____ _ ____ _ ____ _ ____ _ ____
72
65
73
4
40
50.8
49
31.75
74
0
49
-6.35
74
0
49
6.35
74
0
49
-6.35
74
0
0
LTYPE
5
42
330
5
100
AcDbSymbolTableRecord
100
AcDbLinetypeTableRecord
2
CENTER2
70
0
3
Center (.5x) ___ _ ___ _ ___ _ ___ _ ___ _ ___
72
65
73
4
40
28.575
49
19.05
74
0
49
-3.175
74
0
49
3.175
74
0
49
-3.175
74
0
0
LTYPE
5
43
330
5
100
AcDbSymbolTableRecord
100
AcDbLinetypeTableRecord
2
CENTERX2
70
0
3
Center (2x) ________  __  ________  __  _____
72
65
73
4
40
101.6
49
63.5
74
0
49
-12.7
74
0
49
12.7
74
0
49
-12.7
74
0
0
ENDTAB
0
TABLE
2
LAYER
5
2
330
0
100
AcDbSymbolTable
70
1
0
LAYER
5
10
330
2
100
AcDbSymbolTableRecord
100
AcDbLayerTableRecord
2
0
70
4
62
7
6
CONTINUOUS
370
100
390
F
0
LAYER
5
44
330
2
100
AcDbSymbolTableRecord
100
AcDbLayerTableRecord
2
1
70
4
62
7
6
CONTINUOUS
370
35
390
F
0
LAYER
5
45
330
2
100
AcDbSymbolTableRecord
100
AcDbLayerTableRecord
2
aide
70
5
62
1
6
CONTINUOUS
370
0
390
F
0
LAYER
5
46
330
2
100
AcDbSymbolTableRecord
100
AcDbLayerTableRecord
2
autre dimension
70
4
62
1
6
CONTINUOUS
370
0
390
F
0
LAYER
5
47
330
2
100
AcDbSymbolTableRecord
100
AcDbLayerTableRecord
2
dimension engine panel
70
4
62
1
6
CONTINUOUS
370
25
390
F
0
LAYER
5
48
330
2
100
AcDbSymbolTableRecord
100
AcDbLayerTableRecord
2
dimension flap panel
70
4
62
1
6
CONTINUOUS
370
0
390
F
0
LAYER
5
49
330
2
100
AcDbSymbolTableRecord
100
AcDbLayerTableRecord
2
dimension instrument panel
70
4
62
1
6
CONTINUOUS
370
0
390
F
0
LAYER
5
4A
330
2
100
AcDbSymbolTableRecord
100
AcDbLayerTableRecord
2
dimension switch panel
70
4
62
1
6
CONTINUOUS
370
0
390
F
0
LAYER
5
4B
330
2
100
AcDbSymbolTableRecord
100
AcDbLayerTableRecord
2
dimension0
70
5
62
1
6
CONTINUOUS
370
25
390
F
0
LAYER
5
4C
330
2
100
AcDbSymbolTableRecord
100
AcDbLayerTableRecord
2
dimension1
70
5
62
1
6
CONTINUOUS
370
25
390
F
0
LAYER
5
4D
330
2
100
AcDbSymbolTableRecord
100
AcDbLayerTableRecord
2
ecran
70
4
62
7
6
CONTINUOUS
370
0
390
F
0
LAYER
5
4E
330
2
100
AcDbSymbolTableRecord
100
AcDbLayerTableRecord
2
engine panel
70
5
62
7
6
CONTINUOUS
370
35
390
F
0
LAYER
5
4F
330
2
100
AcDbSymbolTableRecord
100
AcDbLayerTableRecord
2
flap panel
70
4
62
7
6
CONTINUOUS
370
0
390
F
0
LAYER
5
50
330
2
100
AcDbSymbolTableRecord
100
AcDbLayerTableRecord
2
gauge panel
70
4
62
7
6
CONTINUOUS
370
0
390
F
0
LAYER
5
51
330
2
100
AcDbSymbolTableRecord
100
AcDbLayerTableRecord
2
instrument panel
70
4
62
7
6
CONTINUOUS
370
0
390
F
0
LAYER
5
52
330
2
100
AcDbSymbolTableRecord
100
AcDbLayerTableRecord
2
radio panel
70
4
62
7
6
CONTINUOUS
370
0
390
F
0
LAYER
5
53
330
2
100
AcDbSymbolTableRecord
100
AcDbLayerTableRecord
2
switch panel
70
4
62
7
6
CONTINUOUS
370
0
390
F
0
ENDTAB
0
TABLE
2
STYLE
5
3
330
0
100
AcDbSymbolTable
70
3
0
STYLE
5
54
330
2
100
AcDbSymbolTableRecord
100
AcDbTextStyleTableRecord
2
Standard
70
0
40
0
41
1
50
0
71
0
42
1
3
txt
4

0
ENDTAB
0
TABLE
2
VIEW
5
6
330
0
100
AcDbSymbolTable
70
0
0
ENDTAB
0
TABLE
2
UCS
5
7
330
0
100
AcDbSymbolTable
70
0
0
ENDTAB
0
TABLE
2
APPID
5
9
330
0
100
AcDbSymbolTable
70
1
0
APPID
5
12
330
9
100
AcDbSymbolTableRecord
100
AcDbRegAppTableRecord
2
ACAD
70
0
0
ENDTAB
0
TABLE
2
DIMSTYLE
5
A
330
0
100
AcDbSymbolTable
70
1
100
AcDbDimStyleTable
71
1
0
DIMSTYLE
105
55
330
A
100
AcDbSymbolTableRecord
100
AcDbDimStyleTableRecord
2
Standard
70
0
40
1
41
2.5
42
0.625
43
0.38
44
1
45
0
46
0
47
0
48
0
140
5
141
0.09
142
0
143
25.4
144
1
145
0
146
1
147
5
148
0
71
0
72
0
73
0
74
1
75
0
76
0
77
0
78
0
79
0
170
0
171
2
172
0
173
0
174
0
175
0
176
0
177
0
178
0
179
0
271
4
272
4
273
2
274
2
275
0
276
0
277
2
278
46
279
0
280
0
281
0
282
0
283
1
284
0
285
0
286
0
288
0
289
3
340
Standard
341

371
-2
372
-2
0
ENDTAB
0
TABLE
2
BLOCK_RECORD
5
1
330
0
100
AcDbSymbolTable
70
2
0
BLOCK_RECORD
5
1F
330
1
100
AcDbSymbolTableRecord
100
AcDbBlockTableRecord
2
*Model_Space
70
0
280
1
281
0
0
BLOCK_RECORD
5
1E
330
1
100
AcDbSymbolTableRecord
100
AcDbBlockTableRecord
2
*Paper_Space
70
0
280
1
281
0
0
BLOCK_RECORD
5
56
330
1
100
AcDbSymbolTableRecord
100
AcDbBlockTableRecord
2
back_panel
70
0
280
1
281
0
0
BLOCK_RECORD
5
59
330
1
100
AcDbSymbolTableRecord
100
AcDbBlockTableRecord
2
instrument_panel
70
0
280
1
281
0
0
BLOCK_RECORD
5
5C
330
1
100
AcDbSymbolTableRecord
100
AcDbBlockTableRecord
2
switch_panel
70
0
280
1
281
0
0
BLOCK_RECORD
5
5F
330
1
100
AcDbSymbolTableRecord
100
AcDbBlockTableRecord
2
engine_panel
70
0
280
1
281
0
0
BLOCK_RECORD
5
62
330
1
100
AcDbSymbolTableRecord
100
AcDbBlockTableRecord
2
gauges_panel
70
0
280
1
281
0
0
BLOCK_RECORD
5
65
330
1
100
AcDbSymbolTableRecord
100
AcDbBlockTableRecord
2
flap_panel
70
0
280
1
281
0
0
BLOCK_RECORD
5
68
330
1
100
AcDbSymbolTableRecord
100
AcDbBlockTableRecord
2
radio_panel
70
0
280
1
281
0
0
ENDTAB
0
ENDSEC
0
SECTION
2
BLOCKS
0
BLOCK
5
20
330
1F
100
AcDbEntity
8
0
100
AcDbBlockBegin
2
*Model_Space
70
0
10
0
20
0
30
0
3
*Model_Space
1

0
ENDBLK
5
21
330
1F
100
AcDbEntity
8
0
100
AcDbBlockEnd
0
BLOCK
5
1C
330
1B
100
AcDbEntity
8
0
100
AcDbBlockBegin
2
*Paper_Space
70
0
10
0
20
0
30
0
3
*Paper_Space
1

0
ENDBLK
5
1D
330
1F
100
AcDbEntity
8
0
100
AcDbBlockEnd
0
BLOCK
5
57
330
56
100
AcDbEntity
8
0
100
AcDbBlockBegin
2
back_panel
70
0
10
0
20
0
3
back_panel
1

0
LINE
5
6B
100
AcDbEntity
8
1
6
ByLayer
62
256
370
-1
100
AcDbLine
10
0
20
0
11
1100
21
0
0
LINE
5
6C
100
AcDbEntity
8
1
6
ByLayer
62
256
370
-1
100
AcDbLine
10
236
20
160
11
272
21
112
0
LINE
5
6D
100
AcDbEntity
8
1
6
ByLayer
62
256
370
-1
100
AcDbLine
10
272
20
112
11
288
21
112
0
LINE
5
6E
100
AcDbEntity
8
1
6
ByLayer
62
256
370
-1
100
AcDbLine
10
288
20
112
11
324
21
160
0
CIRCLE
5
6F
100
AcDbEntity
8
1
6
ByLayer
62
256
370
-1
100
AcDbCircle
10
280
20
150
40
15
0
LINE
5
70
100
AcDbEntity
8
1
6
ByLayer
62
256
370
-1
100
AcDbLine
10
51
20
160
11
51
21
40
0
LINE
5
71
100
AcDbEntity
8
1
6
ByLayer
62
256
370
-1
100
AcDbLine
10
456
20
40
11
456
21
160
0
LINE
5
72
100
AcDbEntity
8
1
6
ByLayer
62
256
370
-1
100
AcDbLine
10
456
20
40
11
51
21
40
0
LINE
5
73
100
AcDbEntity
8
1
6
ByLayer
62
256
370
-1
100
AcDbLine
10
51
20
160
11
236
21
160
0
LINE
5
74
100
AcDbEntity
8
1
6
ByLayer
62
256
370
-1
100
AcDbLine
10
324
20
160
11
456
21
160
0
LINE
5
75
100
AcDbEntity
8
1
6
ByLayer
62
256
370
-1
100
AcDbLine
10
1100
20
195
11
1100
21
0
0
LINE
5
76
100
AcDbEntity
8
1
6
ByLayer
62
256
370
-1
100
AcDbLine
10
0
20
195
11
0
21
0
0
LINE
5
77
100
AcDbEntity
8
1
6
ByLayer
62
256
370
-1
100
AcDbLine
10
485
20
0
11
685
21
0
0
ARC
5
78
100
AcDbEntity
8
0
6
ByLayer
62
256
370
-1
100
AcDbCircle
10
150
20
370
40
150
100
AcDbArc
50
90
51
180
0
ARC
5
79
100
AcDbEntity
8
0
6
ByLayer
62
256
370
-1
100
AcDbCircle
10
950
20
370
40
150
100
AcDbArc
50
0
51
90
0
LINE
5
7A
100
AcDbEntity
8
0
6
ByLayer
62
256
370
-1
100
AcDbLine
10
150
20
520
11
950
21
520
0
LINE
5
7B
100
AcDbEntity
8
1
6
ByLayer
62
256
370
-1
100
AcDbLine
10
880
20
40
11
720
21
40
0
LINE
5
7C
100
AcDbEntity
8
1
6
ByLayer
62
256
370
-1
100
AcDbLine
10
720
20
40
11
720
21
160
0
CIRCLE
5
7D
100
AcDbEntity
8
1
6
ByLayer
62
256
370
-1
100
AcDbCircle
10
825
20
150
40
15
0
LINE
5
7E
100
AcDbEntity
8
1
6
ByLayer
62
256
370
-1
100
AcDbLine
10
470
20
160
11
700
21
160
0
LINE
5
7F
100
AcDbEntity
8
1
6
ByLayer
62
256
370
-1
100
AcDbLine
10
700
20
160
11
700
21
40
0
LINE
5
80
100
AcDbEntity
8
1
6
ByLayer
62
256
370
-1
100
AcDbLine
10
700
20
40
11
470
21
40
0
LINE
5
81
100
AcDbEntity
8
1
6
ByLayer
62
256
370
-1
100
AcDbLine
10
470
20
40
11
470
21
160
0
LINE
5
82
100
AcDbEntity
8
1
6
ByLayer
62
256
370
-1
100
AcDbLine
10
781
20
160
11
817
21
112
0
LINE
5
83
100
AcDbEntity
8
1
6
ByLayer
62
256
370
-1
100
AcDbLine
10
817
20
112
11
833
21
112
0
LINE
5
84
100
AcDbEntity
8
1
6
ByLayer
62
256
370
-1
100
AcDbLine
10
720
20
160
11
781
21
160
0
LINE
5
85
100
AcDbEntity
8
1
6
ByLayer
62
256
370
-1
100
AcDbLine
10
846.5
20
130
11
880
21
130
0
LINE
5
86
100
AcDbEntity
8
1
6
ByLayer
62
256
370
-1
100
AcDbLine
10
846.5
20
130
11
833
21
112
0
LINE
5
87
100
AcDbEntity
8
1
6
ByLayer
62
256
370
-1
100
AcDbLine
10
880
20
130
11
880
21
40
0
ARC
5
88
100
AcDbEntity
8
0
6
ByLayer
62
256
370
-1
100
AcDbCircle
10
5
20
175
40
5
100
AcDbArc
50
180
51
270
0
ARC
5
89
100
AcDbEntity
8
0
6
ByLayer
62
256
370
-1
100
AcDbCircle
10
1095
20
175
40
5
100
AcDbArc
50
270
51
0
0
LINE
5
8A
100
AcDbEntity
8
0
6
ByLayer
62
256
370
-1
100
AcDbLine
10
1100
20
370
11
1100
21
175
0
LINE
5
8B
100
AcDbEntity
8
0
6
ByLayer
62
256
370
-1
100
AcDbLine
10
1095
20
170
11
5
21
170
0
LINE
5
8C
100
AcDbEntity
8
0
6
ByLayer
62
256
370
-1
100
AcDbLine
10
0
20
175
11
0
21
370
0
LINE
5
8D
100
AcDbEntity
8
ecran
6
ByLayer
62
256
370
-1
100
AcDbLine
10
67.75
20
460
11
407.75
21
190
0
LINE
5
8E
100
AcDbEntity
8
ecran
6
ByLayer
62
256
370
-1
100
AcDbLine
10
67.75
20
190
11
407.75
21
460
0
LINE
5
8F
100
AcDbEntity
8
ecran
6
ByLayer
62
256
370
-1
100
AcDbLine
10
422.75
20
470
11
57.75
21
470
0
LINE
5
90
100
AcDbEntity
8
ecran
6
ByLayer
62
256
370
-1
100
AcDbLine
10
57.75
20
180
11
422.75
21
180
0
LINE
5
91
100
AcDbEntity
8
ecran
6
ByLayer
62
256
370
-1
100
AcDbLine
10
422.75
20
180
11
422.75
21
470
0
LINE
5
92
100
AcDbEntity
8
ecran
6
ByLayer
62
256
370
-1
100
AcDbLine
10
57.75
20
470
11
57.75
21
180
0
LINE
5
93
100
AcDbEntity
8
ecran
6
ByLayer
62
256
370
-1
100
AcDbLine
10
407.75
20
460
11
407.75
21
190
0
LINE
5
94
100
AcDbEntity
8
ecran
6
ByLayer
62
256
370
-1
100
AcDbLine
10
407.75
20
190
11
67.75
21
190
0
LINE
5
95
100
AcDbEntity
8
ecran
6
ByLayer
62
256
370
-1
100
AcDbLine
10
67.75
20
190
11
67.75
21
460
0
LINE
5
96
100
AcDbEntity
8
ecran
6
ByLayer
62
256
370
-1
100
AcDbLine
10
67.75
20
460
11
407.75
21
460
0
LINE
5
97
100
AcDbEntity
8
1
6
ByLayer
62
256
370
-1
100
AcDbLine
10
50
20
195
11
50
21
177
0
LINE
5
98
100
AcDbEntity
8
1
6
ByLayer
62
256
370
-1
100
AcDbLine
10
50
20
177
11
430
21
177
0
LINE
5
99
100
AcDbEntity
8
1
6
ByLayer
62
256
370
-1
100
AcDbLine
10
430
20
177
11
430
21
195
0
LINE
5
9A
100
AcDbEntity
8
1
6
ByLayer
62
256
370
-1
100
AcDbLine
10
0
20
195
11
50
21
195
0
LINE
5
9B
100
AcDbEntity
8
1
6
ByLayer
62
256
370
-1
100
AcDbLine
10
430
20
195
11
1100
21
195
0
DIMENSION
5
9C
100
AcDbEntity
8
dimension1
6
ByLayer
62
256
370
-1
100
AcDbDimension
10
-60
20
1.46952762459e-014
30
0
11
-61.875
21
97.5
31
0
70
33
71
5
3
Standard
53
0
210
0
220
0
230
1
100
AcDbAlignedDimension
13
0
23
195
33
0
14
0
24
0
34
0
0
DIMENSION
5
9D
100
AcDbEntity
8
dimension1
6
ByLayer
62
256
370
-1
100
AcDbDimension
10
50
20
230
30
0
11
25
21
231.875
31
0
70
33
71
5
3
Standard
53
0
210
0
220
0
230
1
100
AcDbAlignedDimension
13
0
23
195
33
0
14
50
24
195
34
0
0
DIMENSION
5
9E
100
AcDbEntity
8
dimension1
6
ByLayer
62
256
370
-1
100
AcDbDimension
10
40
20
177
30
0
11
38.125
21
186
31
0
70
33
71
5
3
Standard
53
0
210
0
220
0
230
1
100
AcDbAlignedDimension
13
50
23
195
33
0
14
50
24
177
34
0
0
DIMENSION
5
9F
100
AcDbEntity
8
dimension1
6
ByLayer
62
256
370
-1
100
AcDbDimension
10
430
20
170
30
0
11
240
21
171.875
31
0
70
33
71
5
3
Standard
53
0
210
0
220
0
230
1
100
AcDbAlignedDimension
13
50
23
177
33
0
14
430
24
177
34
0
0
DIMENSION
5
A0
100
AcDbEntity
8
dimension1
6
ByLayer
62
256
370
-1
100
AcDbDimension
10
1100
20
220
30
0
11
765
21
221.875
31
0
70
33
71
5
3
Standard
53
0
210
0
220
0
230
1
100
AcDbAlignedDimension
13
430
23
195
33
0
14
1100
24
195
34
0
0
DIMENSION
5
A1
100
AcDbEntity
8
dimension1
6
ByLayer
62
256
370
-1
100
AcDbDimension
10
265
20
150
30
0
11
280
21
151.875
31
0
70
35
71
5
3
Standard
53
0
210
0
220
0
230
1
100
AcDbDiametricDimension
15
295
25
150
35
0
40
0
0
DIMENSION
5
A2
100
AcDbEntity
8
dimension1
6
ByLayer
62
256
370
-1
100
AcDbDimension
10
810
20
150
30
0
11
825
21
151.875
31
0
70
35
71
5
3
Standard
53
0
210
0
220
0
230
1
100
AcDbDiametricDimension
15
840
25
150
35
0
40
0
0
DIMENSION
5
A3
100
AcDbEntity
8
dimension1
6
ByLayer
62
256
370
-1
100
AcDbDimension
10
456
20
30
30
0
11
253.5
21
31.875
31
0
70
32
71
5
3
Standard
53
0
210
0
220
0
230
1
100
AcDbAlignedDimension
13
51
23
40
33
0
14
456
24
40
34
0
100
AcDbRotatedDimension
0
DIMENSION
5
A4
100
AcDbEntity
8
dimension1
6
ByLayer
62
256
370
-1
100
AcDbDimension
10
330
20
112
30
0
11
328.125
21
136
31
0
70
32
71
5
3
Standard
53
0
210
0
220
0
230
1
100
AcDbAlignedDimension
13
324
23
160
33
0
14
288
24
112
34
0
50
90
100
AcDbRotatedDimension
0
DIMENSION
5
A5
100
AcDbEntity
8
dimension1
6
ByLayer
62
256
370
-1
100
AcDbDimension
10
465
20
-6.12303176911e-016
30
0
11
463.125
21
20
31
0
70
32
71
5
3
Standard
53
0
210
0
220
0
230
1
100
AcDbAlignedDimension
13
456
23
40
33
0
14
460
24
0
34
0
50
90
100
AcDbRotatedDimension
0
DIMENSION
5
A6
100
AcDbEntity
8
dimension1
6
ByLayer
62
256
370
-1
100
AcDbDimension
10
51
20
80
30
0
11
165.5
21
81.875
31
0
70
33
71
5
3
Standard
53
0
210
0
220
0
230
1
100
AcDbAlignedDimension
13
280
23
150
33
0
14
51
24
150
34
0
0
DIMENSION
5
A7
100
AcDbEntity
8
dimension1
6
ByLayer
62
256
370
-1
100
AcDbDimension
10
272
20
100
30
0
11
254
21
101.875
31
0
70
32
71
5
3
Standard
53
0
210
0
220
0
230
1
100
AcDbAlignedDimension
13
236
23
160
33
0
14
272
24
112
34
0
100
AcDbRotatedDimension
0
DIMENSION
5
A8
100
AcDbEntity
8
dimension1
6
ByLayer
62
256
370
-1
100
AcDbDimension
10
288
20
122
30
0
11
280
21
123.875
31
0
70
32
71
5
3
Standard
53
0
210
0
220
0
230
1
100
AcDbAlignedDimension
13
272
23
112
33
0
14
288
24
112
34
0
100
AcDbRotatedDimension
0
DIMENSION
5
A9
100
AcDbEntity
8
dimension1
6
ByLayer
62
256
370
-1
100
AcDbDimension
10
236
20
166
30
0
11
143.5
21
167.875
31
0
70
32
71
5
3
Standard
53
0
210
0
220
0
230
1
100
AcDbAlignedDimension
13
51
23
160
33
0
14
236
24
160
34
0
100
AcDbRotatedDimension
0
DIMENSION
5
AA
100
AcDbEntity
8
dimension1
6
ByLayer
62
256
370
-1
100
AcDbDimension
10
302
20
150
30
0
11
300.125
21
163.5
31
0
70
32
71
5
3
Standard
53
0
210
0
220
0
230
1
100
AcDbAlignedDimension
13
280
23
177
33
0
14
280
24
150
34
0
50
90
100
AcDbRotatedDimension
0
DIMENSION
5
AB
100
AcDbEntity
8
dimension1
6
ByLayer
62
256
370
-1
100
AcDbDimension
10
700
20
180
30
0
11
585
21
181.875
31
0
70
33
71
5
3
Standard
53
0
210
0
220
0
230
1
100
AcDbAlignedDimension
13
470
23
160
33
0
14
700
24
160
34
0
0
DIMENSION
5
AC
100
AcDbEntity
8
dimension1
6
ByLayer
62
256
370
-1
100
AcDbDimension
10
781
20
180
30
0
11
750.5
21
181.875
31
0
70
33
71
5
3
Standard
53
0
210
0
220
0
230
1
100
AcDbAlignedDimension
13
720
23
160
33
0
14
781
24
160
34
0
0
DIMENSION
5
AD
100
AcDbEntity
8
dimension1
6
ByLayer
62
256
370
-1
100
AcDbDimension
10
833
20
117
30
0
11
825
21
118.875
31
0
70
32
71
5
3
Standard
53
0
210
0
220
0
230
1
100
AcDbAlignedDimension
13
817
23
112
33
0
14
833
24
112
34
0
100
AcDbRotatedDimension
0
DIMENSION
5
AE
100
AcDbEntity
8
dimension1
6
ByLayer
62
256
370
-1
100
AcDbDimension
10
880
20
137
30
0
11
863.25
21
138.875
31
0
70
32
71
5
3
Standard
53
0
210
0
220
0
230
1
100
AcDbAlignedDimension
13
846.5
23
130
33
0
14
880
24
130
34
0
100
AcDbRotatedDimension
0
DIMENSION
5
AF
100
AcDbEntity
8
dimension1
6
ByLayer
62
256
370
-1
100
AcDbDimension
10
400
20
40
30
0
11
398.125
21
100
31
0
70
33
71
5
3
Standard
53
0
210
0
220
0
230
1
100
AcDbAlignedDimension
13
400
23
160
33
0
14
400
24
40
34
0
0
DIMENSION
5
B0
100
AcDbEntity
8
dimension1
6
ByLayer
62
256
370
-1
100
AcDbDimension
10
51
20
-20
30
0
11
25.5
21
-18.125
31
0
70
32
71
5
3
Standard
53
0
210
0
220
0
230
1
100
AcDbAlignedDimension
13
0
23
40
33
0
14
51
24
40
34
0
100
AcDbRotatedDimension
0
DIMENSION
5
B1
100
AcDbEntity
8
dimension1
6
ByLayer
62
256
370
-1
100
AcDbDimension
10
470
20
-30
30
0
11
235
21
-28.125
31
0
70
32
71
5
3
Standard
53
0
210
0
220
0
230
1
100
AcDbAlignedDimension
13
0
23
40
33
0
14
470
24
40
34
0
100
AcDbRotatedDimension
0
DIMENSION
5
B2
100
AcDbEntity
8
dimension1
6
ByLayer
62
256
370
-1
100
AcDbDimension
10
720
20
-40
30
0
11
360
21
-38.125
31
0
70
32
71
5
3
Standard
53
0
210
0
220
0
230
1
100
AcDbAlignedDimension
13
0
23
40
33
0
14
720
24
40
34
0
100
AcDbRotatedDimension
0
DIMENSION
5
B3
100
AcDbEntity
8
dimension1
6
ByLayer
62
256
370
-1
100
AcDbDimension
10
1100
20
180
30
0
11
962.5
21
181.875
31
0
70
32
71
5
3
Standard
53
0
210
0
220
0
230
1
100
AcDbAlignedDimension
13
825
23
150
33
0
14
1100
24
150
34
0
100
AcDbRotatedDimension
0
DIMENSION
5
B4
100
AcDbEntity
8
dimension1
6
ByLayer
62
256
370
-1
100
AcDbDimension
10
800
20
195
30
0
11
798.125
21
172.5
31
0
70
32
71
5
3
Standard
53
0
210
0
220
0
230
1
100
AcDbAlignedDimension
13
825
23
150
33
0
14
825
24
195
34
0
50
90
100
AcDbRotatedDimension
0
DIMENSION
5
B5
100
AcDbEntity
8
dimension1
6
ByLayer
62
256
370
-1
100
AcDbDimension
10
781
20
112
30
0
11
779.125
21
136
31
0
70
32
71
5
3
Standard
53
0
210
0
220
0
230
1
100
AcDbAlignedDimension
13
781
23
160
33
0
14
817
24
112
34
0
50
90
100
AcDbRotatedDimension
0
DIMENSION
5
B6
100
AcDbEntity
8
dimension1
6
ByLayer
62
256
370
-1
100
AcDbDimension
10
817
20
106
30
0
11
799
21
107.875
31
0
70
32
71
5
3
Standard
53
0
210
0
220
0
230
1
100
AcDbAlignedDimension
13
781
23
160
33
0
14
817
24
112
34
0
100
AcDbRotatedDimension
0
DIMENSION
5
B7
100
AcDbEntity
8
dimension1
6
ByLayer
62
256
370
-1
100
AcDbDimension
10
846.5
20
106
30
0
11
839.75
21
107.875
31
0
70
32
71
5
3
Standard
53
0
210
0
220
0
230
1
100
AcDbAlignedDimension
13
833
23
112
33
0
14
846.5
24
130
34
0
100
AcDbRotatedDimension
0
DIMENSION
5
B8
100
AcDbEntity
8
dimension1
6
ByLayer
62
256
370
-1
100
AcDbDimension
10
846.5
20
130
30
0
11
844.625
21
121
31
0
70
32
71
5
3
Standard
53
0
210
0
220
0
230
1
100
AcDbAlignedDimension
13
833
23
112
33
0
14
846.5
24
130
34
0
50
90
100
AcDbRotatedDimension
0
DIMENSION
5
B9
100
AcDbEntity
8
dimension1
6
ByLayer
62
256
370
-1
100
AcDbDimension
10
900
20
40
30
0
11
898.125
21
85
31
0
70
32
71
5
3
Standard
53
0
210
0
220
0
230
1
100
AcDbAlignedDimension
13
880
23
130
33
0
14
880
24
40
34
0
50
90
100
AcDbRotatedDimension
0
LINE
5
BA
100
AcDbEntity
8
ecran
6
ByLayer
62
256
370
-1
100
AcDbLine
10
470
20
480
11
810
21
210
0
LINE
5
BB
100
AcDbEntity
8
ecran
6
ByLayer
62
256
370
-1
100
AcDbLine
10
470
20
210
11
810
21
480
0
LINE
5
BC
100
AcDbEntity
8
ecran
6
ByLayer
62
256
370
-1
100
AcDbLine
10
825
20
490
11
460
21
490
0
LINE
5
BD
100
AcDbEntity
8
ecran
6
ByLayer
62
256
370
-1
100
AcDbLine
10
460
20
200
11
825
21
200
0
LINE
5
BE
100
AcDbEntity
8
ecran
6
ByLayer
62
256
370
-1
100
AcDbLine
10
825
20
200
11
825
21
490
0
LINE
5
BF
100
AcDbEntity
8
ecran
6
ByLayer
62
256
370
-1
100
AcDbLine
10
460
20
490
11
460
21
200
0
LINE
5
C0
100
AcDbEntity
8
ecran
6
ByLayer
62
256
370
-1
100
AcDbLine
10
810
20
480
11
810
21
210
0
LINE
5
C1
100
AcDbEntity
8
ecran
6
ByLayer
62
256
370
-1
100
AcDbLine
10
810
20
210
11
470
21
210
0
LINE
5
C2
100
AcDbEntity
8
ecran
6
ByLayer
62
256
370
-1
100
AcDbLine
10
470
20
210
11
470
21
480
0
LINE
5
C3
100
AcDbEntity
8
ecran
6
ByLayer
62
256
370
-1
100
AcDbLine
10
470
20
480
11
810
21
480
0
DIMENSION
5
C4
100
AcDbEntity
8
dimension0
6
ByLayer
62
256
370
50
100
AcDbDimension
10
870
20
170
30
0
11
870
21
185
31
0
70
32
71
5
72
0
3
Standard
53
0
210
0
220
0
230
1
100
AcDbAlignedDimension
13
825
23
200
33
0
14
825
24
170
34
0
50
90
100
AcDbRotatedDimension
0
DIMENSION
5
C5
100
AcDbEntity
8
dimension0
6
ByLayer
62
256
370
50
100
AcDbDimension
10
870
20
200
30
0
11
870
21
345
31
0
70
32
71
5
72
0
3
Standard
53
0
210
0
220
0
230
1
100
AcDbAlignedDimension
13
825
23
490
33
0
14
825
24
200
34
0
50
90
100
AcDbRotatedDimension
0
DIMENSION
5
C6
100
AcDbEntity
8
dimension0
6
ByLayer
62
256
370
50
100
AcDbDimension
10
1196.19685767
20
170
30
0
11
1196.19685767
21
270
31
0
70
32
71
5
72
0
3
Standard
53
0
210
0
220
0
230
1
100
AcDbAlignedDimension
13
1100
23
370
33
0
14
1095
24
170
34
0
50
90
100
AcDbRotatedDimension
0
DIMENSION
5
C7
100
AcDbEntity
8
dimension0
6
ByLayer
62
256
370
50
100
AcDbDimension
10
1195.32116451
20
520
30
0
11
1195.32116451
21
445
31
0
70
32
71
5
72
0
3
Standard
53
0
210
0
220
0
230
1
100
AcDbAlignedDimension
13
1100
23
370
33
0
14
950
24
520
34
0
50
90
100
AcDbRotatedDimension
0
DIMENSION
5
C8
100
AcDbEntity
8
dimension0
6
ByLayer
62
256
370
50
100
AcDbDimension
10
463.066543438
20
170
30
0
11
463.066543438
21
175
31
0
70
32
71
5
72
0
3
Standard
53
0
210
0
220
0
230
1
100
AcDbAlignedDimension
13
422.75
23
180
33
0
14
5
24
170
34
0
50
90
100
AcDbRotatedDimension
0
DIMENSION
5
C9
100
AcDbEntity
8
dimension0
6
ByLayer
62
256
370
50
100
AcDbDimension
10
5.44759685244e-015
20
263.968946396
30
0
11
28.875
21
263.968946396
31
0
70
32
71
5
72
0
3
Standard
53
0
210
0
220
0
230
1
100
AcDbAlignedDimension
13
57.75
23
180
33
0
14
0
24
175
34
0
100
AcDbRotatedDimension
0
DIMENSION
5
CA
100
AcDbEntity
8
dimension0
6
ByLayer
62
256
370
50
100
AcDbDimension
10
1100
20
690.976634704
30
0
11
550
21
690.976634704
31
0
70
32
71
5
72
0
3
Standard
53
0
210
0
220
0
230
1
100
AcDbAlignedDimension
13
0
23
370
33
0
14
1100
24
370
34
0
100
AcDbRotatedDimension
0
DIMENSION
5
CB
100
AcDbEntity
8
dimension0
6
ByLayer
62
256
370
50
100
AcDbDimension
10
950
20
598.61837165
30
0
11
550
21
598.61837165
31
0
70
32
71
5
72
0
3
Standard
53
0
210
0
220
0
230
1
100
AcDbAlignedDimension
13
150
23
520
33
0
14
950
24
520
34
0
100
AcDbRotatedDimension
0
DIMENSION
5
CC
100
AcDbEntity
8
dimension0
6
ByLayer
62
256
370
50
100
AcDbDimension
10
7.97461931616e-015
20
500.239718115
30
0
11
230
21
500.239718115
31
0
70
32
71
5
72
0
3
Standard
53
0
210
0
220
0
230
1
100
AcDbAlignedDimension
13
460
23
490
33
0
14
0
24
370
34
0
100
AcDbRotatedDimension
0
ENDBLK
5
58
330
56
100
AcDbEntity
8
0
100
AcDbBlockEnd
0
BLOCK
5
5A
330
59
100
AcDbEntity
8
0
100
AcDbBlockBegin
2
instrument_panel
70
0
10
0
20
0
3
instrument_panel
1

0
CIRCLE
5
CD
100
AcDbEntity
8
instrument panel
6
ByLayer
62
256
370
-1
100
AcDbCircle
10
50
20
50
40
35
0
CIRCLE
5
CE
100
AcDbEntity
8
instrument panel
6
ByLayer
62
256
370
-1
100
AcDbCircle
10
135
20
50
40
35
0
CIRCLE
5
CF
100
AcDbEntity
8
instrument panel
6
ByLayer
62
256
370
-1
100
AcDbCircle
10
135
20
140
40
35
0
CIRCLE
5
D0
100
AcDbEntity
8
instrument panel
6
ByLayer
62
256
370
-1
100
AcDbCircle
10
135
20
235
40
35
0
CIRCLE
5
D1
100
AcDbEntity
8
instrument panel
6
ByLayer
62
256
370
-1
100
AcDbCircle
10
315
20
50
40
35
0
CIRCLE
5
D2
100
AcDbEntity
8
instrument panel
6
ByLayer
62
256
370
-1
100
AcDbCircle
10
315
20
140
40
35
0
CIRCLE
5
D3
100
AcDbEntity
8
instrument panel
6
ByLayer
62
256
370
-1
100
AcDbCircle
10
315
20
235
40
35
0
CIRCLE
5
D4
100
AcDbEntity
8
instrument panel
6
ByLayer
62
256
370
-1
100
AcDbCircle
10
50
20
50
40
33
0
CIRCLE
5
D5
100
AcDbEntity
8
instrument panel
6
ByLayer
62
256
370
-1
100
AcDbCircle
10
135
20
50
40
33
0
CIRCLE
5
D6
100
AcDbEntity
8
instrument panel
6
ByLayer
62
256
370
-1
100
AcDbCircle
10
315
20
50
40
33
0
CIRCLE
5
D7
100
AcDbEntity
8
instrument panel
6
ByLayer
62
256
370
-1
100
AcDbCircle
10
315
20
140
40
33
0
CIRCLE
5
D8
100
AcDbEntity
8
instrument panel
6
ByLayer
62
256
370
-1
100
AcDbCircle
10
315
20
235
40
33
0
CIRCLE
5
D9
100
AcDbEntity
8
instrument panel
6
ByLayer
62
256
370
-1
100
AcDbCircle
10
135
20
140
40
33
0
CIRCLE
5
DA
100
AcDbEntity
8
instrument panel
6
ByLayer
62
256
370
-1
100
AcDbCircle
10
135
20
235
40
33
0
ARC
5
DB
100
AcDbEntity
8
instrument panel
6
ByLayer
62
256
370
-1
100
AcDbCircle
10
0
20
0
40
0
100
AcDbArc
50
0
51
90
0
CIRCLE
5
DC
100
AcDbEntity
8
instrument panel
6
ByLayer
62
256
370
-1
100
AcDbCircle
10
225
20
140
40
40
0
CIRCLE
5
DD
100
AcDbEntity
8
instrument panel
6
ByLayer
62
256
370
-1
100
AcDbCircle
10
225
20
235
40
40
0
CIRCLE
5
DE
100
AcDbEntity
8
instrument panel
6
ByLayer
62
256
370
-1
100
AcDbCircle
10
225
20
140
40
38
0
CIRCLE
5
DF
100
AcDbEntity
8
instrument panel
6
ByLayer
62
256
370
-1
100
AcDbCircle
10
225
20
235
40
38
0
LINE
5
E0
100
AcDbEntity
8
instrument panel
6
ByLayer
62
256
370
-1
100
AcDbLine
10
260
20
65
11
190
21
65
0
LINE
5
E1
100
AcDbEntity
8
instrument panel
6
ByLayer
62
256
370
-1
100
AcDbLine
10
265
20
70
11
185
21
70
0
LINE
5
E2
100
AcDbEntity
8
instrument panel
6
ByLayer
62
256
370
-1
100
AcDbLine
10
190
20
50
11
260
21
50
0
LINE
5
E3
100
AcDbEntity
8
instrument panel
6
ByLayer
62
256
370
-1
100
AcDbLine
10
185
20
35
11
265
21
35
0
LINE
5
E4
100
AcDbEntity
8
instrument panel
6
ByLayer
62
256
370
-1
100
AcDbLine
10
185
20
70
11
185
21
35
0
LINE
5
E5
100
AcDbEntity
8
instrument panel
6
ByLayer
62
256
370
-1
100
AcDbLine
10
265
20
70
11
265
21
35
0
LINE
5
E6
100
AcDbEntity
8
instrument panel
6
ByLayer
62
256
370
-1
100
AcDbLine
10
190
20
65
11
190
21
50
0
LINE
5
E7
100
AcDbEntity
8
instrument panel
6
ByLayer
62
256
370
-1
100
AcDbLine
10
260
20
65
11
260
21
50
0
ARC
5
E8
100
AcDbEntity
8
instrument panel
6
ByLayer
62
256
370
-1
100
AcDbCircle
10
10
20
275
40
20
100
AcDbArc
50
90
51
180
0
ARC
5
E9
100
AcDbEntity
8
instrument panel
6
ByLayer
62
256
370
-1
100
AcDbCircle
10
10
20
15
40
20
100
AcDbArc
50
180
51
270
0
LINE
5
EA
100
AcDbEntity
8
instrument panel
6
ByLayer
62
256
370
-1
100
AcDbLine
10
-10
20
15
11
-10
21
275
0
ARC
5
EB
100
AcDbEntity
8
instrument panel
6
ByLayer
62
256
370
-1
100
AcDbCircle
10
360
20
275
40
20
100
AcDbArc
50
0
51
90
0
ARC
5
EC
100
AcDbEntity
8
instrument panel
6
ByLayer
62
256
370
-1
100
AcDbCircle
10
360
20
15
40
20
100
AcDbArc
50
270
51
0
0
LINE
5
ED
100
AcDbEntity
8
instrument panel
6
ByLayer
62
256
370
-1
100
AcDbLine
10
380
20
275
11
380
21
15
0
LINE
5
EE
100
AcDbEntity
8
instrument panel
6
ByLayer
62
256
370
-1
100
AcDbLine
10
360
20
295
11
10
21
295
0
LINE
5
EF
100
AcDbEntity
8
instrument panel
6
ByLayer
62
256
370
-1
100
AcDbLine
10
10
20
-5
11
360
21
-5
0
DIMENSION
5
F0
100
AcDbEntity
8
dimension instrument panel
6
ByLayer
62
256
370
-1
100
AcDbDimension
10
225
20
140
30
0
11
239.038846061
21
154.367547678
31
0
70
36
71
5
3
Standard
53
0
210
0
220
0
230
1
100
AcDbRadialDimension
15
255.503510055
25
165.875391288
35
0
40
0
0
DIMENSION
5
F1
100
AcDbEntity
8
dimension instrument panel
6
ByLayer
62
256
370
-1
100
AcDbDimension
10
225
20
235
30
0
11
237.453223288
21
250.761752908
31
0
70
36
71
5
3
Standard
53
0
210
0
220
0
230
1
100
AcDbRadialDimension
15
252.619029867
25
263.934221766
35
0
40
0
0
DIMENSION
5
F2
100
AcDbEntity
8
dimension instrument panel
6
ByLayer
62
256
370
-1
100
AcDbDimension
10
315
20
235
30
0
11
313.394420767
21
252.526772102
31
0
70
36
71
5
3
Standard
53
0
210
0
220
0
230
1
100
AcDbRadialDimension
15
315.538397827
25
269.995858723
35
0
40
0
0
DIMENSION
5
F3
100
AcDbEntity
8
dimension instrument panel
6
ByLayer
62
256
370
-1
100
AcDbDimension
10
135
20
235
30
0
11
133.407465197
21
252.527962172
31
0
70
36
71
5
3
Standard
53
0
210
0
220
0
230
1
100
AcDbRadialDimension
15
135.564442715
25
269.995448339
35
0
40
0
0
DIMENSION
5
F4
100
AcDbEntity
8
dimension instrument panel
6
ByLayer
62
256
370
-1
100
AcDbDimension
10
135
20
140
30
0
11
131.035396361
21
157.147814525
31
0
70
36
71
5
3
Standard
53
0
210
0
220
0
230
1
100
AcDbRadialDimension
15
123.527955427
25
173.066481417
35
0
40
0
0
DIMENSION
5
F5
100
AcDbEntity
8
dimension instrument panel
6
ByLayer
62
256
370
-1
100
AcDbDimension
10
315
20
140
30
0
11
297.612138644
21
142.725417848
31
0
70
36
71
5
3
Standard
53
0
210
0
220
0
230
1
100
AcDbRadialDimension
15
280.041567711
25
141.70528938
35
0
40
0
0
DIMENSION
5
F6
100
AcDbEntity
8
dimension instrument panel
6
ByLayer
62
256
370
-1
100
AcDbDimension
10
315
20
50
30
0
11
298.636030789
21
56.4796710309
31
0
70
36
71
5
3
Standard
53
0
210
0
220
0
230
1
100
AcDbRadialDimension
15
281.270758568
25
59.3454947654
35
0
40
0
0
DIMENSION
5
F7
100
AcDbEntity
8
dimension instrument panel
6
ByLayer
62
256
370
-1
100
AcDbDimension
10
135
20
50
30
0
11
152.5
21
51.875
31
0
70
36
71
5
3
Standard
53
0
210
0
220
0
230
1
100
AcDbRadialDimension
15
170
25
50
35
0
40
0
0
DIMENSION
5
F8
100
AcDbEntity
8
dimension instrument panel
6
ByLayer
62
256
370
-1
100
AcDbDimension
10
50
20
50
30
0
11
40.6754012919
21
64.9270721822
31
0
70
36
71
5
3
Standard
53
0
210
0
220
0
230
1
100
AcDbRadialDimension
15
28.4001022687
25
77.5398696075
35
0
40
0
0
DIMENSION
5
F9
100
AcDbEntity
8
dimension instrument panel
6
ByLayer
62
256
370
-1
100
AcDbDimension
10
10
20
275
30
0
11
4.25475740286
21
283.396893027
31
0
70
36
71
5
3
Standard
53
0
210
0
220
0
230
1
100
AcDbRadialDimension
15
-4.14213562373
25
289.142135624
35
0
40
0
0
DIMENSION
5
FA
100
AcDbEntity
8
dimension instrument panel
6
ByLayer
62
256
370
-1
100
AcDbDimension
10
-47.607421875
20
-5
30
0
11
-49.482421875
21
145
31
0
70
32
71
5
3
Standard
53
0
210
0
220
0
230
1
100
AcDbAlignedDimension
13
10
23
295
33
0
14
10
24
-5
34
0
50
90
100
AcDbRotatedDimension
0
DIMENSION
5
FB
100
AcDbEntity
8
dimension instrument panel
6
ByLayer
62
256
370
-1
100
AcDbDimension
10
380
20
316.89453125
30
0
11
185
21
318.76953125
31
0
70
32
71
5
3
Standard
53
0
210
0
220
0
230
1
100
AcDbAlignedDimension
13
-10
23
275
33
0
14
380
24
275
34
0
100
AcDbRotatedDimension
0
DIMENSION
5
FC
100
AcDbEntity
8
dimension instrument panel
6
ByLayer
62
256
370
-1
100
AcDbDimension
10
260
20
41
30
0
11
225
21
42.875
31
0
70
32
71
5
3
Standard
53
0
210
0
220
0
230
1
100
AcDbAlignedDimension
13
190
23
50
33
0
14
260
24
50
34
0
100
AcDbRotatedDimension
0
DIMENSION
5
FD
100
AcDbEntity
8
dimension instrument panel
6
ByLayer
62
256
370
-1
100
AcDbDimension
10
265
20
73.8
30
0
11
225
21
75.675
31
0
70
32
71
5
3
Standard
53
0
210
0
220
0
230
1
100
AcDbAlignedDimension
13
185
23
70
33
0
14
265
24
70
34
0
100
AcDbRotatedDimension
0
DIMENSION
5
FE
100
AcDbEntity
8
dimension instrument panel
6
ByLayer
62
256
370
-1
100
AcDbDimension
10
178.6
20
35
30
0
11
176.725
21
52.5
31
0
70
32
71
5
3
Standard
53
0
210
0
220
0
230
1
100
AcDbAlignedDimension
13
185
23
70
33
0
14
185
24
35
34
0
50
90
100
AcDbRotatedDimension
0
DIMENSION
5
FF
100
AcDbEntity
8
dimension instrument panel
6
ByLayer
62
256
370
-1
100
AcDbDimension
10
251.8
20
50
30
0
11
249.925
21
57.5
31
0
70
32
71
5
3
Standard
53
0
210
0
220
0
230
1
100
AcDbAlignedDimension
13
260
23
65
33
0
14
260
24
50
34
0
50
90
100
AcDbRotatedDimension
0
DIMENSION
5
100
100
AcDbEntity
8
dimension instrument panel
6
ByLayer
62
256
370
-1
100
AcDbDimension
10
245.60546875
20
-5
30
0
11
243.73046875
21
15
31
0
70
32
71
5
3
Standard
53
0
210
0
220
0
230
1
100
AcDbAlignedDimension
13
265
23
35
33
0
14
360
24
-5
34
0
50
90
100
AcDbRotatedDimension
0
DIMENSION
5
101
100
AcDbEntity
8
dimension instrument panel
6
ByLayer
62
256
370
-1
100
AcDbDimension
10
5.3125
20
50
30
0
11
3.4375
21
22.5
31
0
70
32
71
5
3
Standard
53
0
210
0
220
0
230
1
100
AcDbAlignedDimension
13
10
23
-5
33
0
14
50
24
50
34
0
50
90
100
AcDbRotatedDimension
0
DIMENSION
5
102
100
AcDbEntity
8
dimension instrument panel
6
ByLayer
62
256
370
-1
100
AcDbDimension
10
5.4
20
-5
30
0
11
3.525
21
67.5
31
0
70
32
71
5
3
Standard
53
0
210
0
220
0
230
1
100
AcDbAlignedDimension
13
135
23
140
33
0
14
10
24
-5
34
0
50
90
100
AcDbRotatedDimension
0
DIMENSION
5
103
100
AcDbEntity
8
dimension instrument panel
6
ByLayer
62
256
370
-1
100
AcDbDimension
10
-0.6103515625
20
-5
30
0
11
-2.4853515625
21
115
31
0
70
32
71
5
3
Standard
53
0
210
0
220
0
230
1
100
AcDbAlignedDimension
13
135
23
235
33
0
14
10
24
-5
34
0
50
90
100
AcDbRotatedDimension
0
DIMENSION
5
104
100
AcDbEntity
8
dimension instrument panel
6
ByLayer
62
256
370
-1
100
AcDbDimension
10
380
20
191.015625
30
0
11
347.5
21
192.890625
31
0
70
32
71
5
3
Standard
53
0
210
0
220
0
230
1
100
AcDbAlignedDimension
13
315
23
235
33
0
14
380
24
275
34
0
100
AcDbRotatedDimension
0
DIMENSION
5
105
100
AcDbEntity
8
dimension instrument panel
6
ByLayer
62
256
370
-1
100
AcDbDimension
10
225
20
187.890625
30
0
11
302.5
21
189.765625
31
0
70
32
71
5
3
Standard
53
0
210
0
220
0
230
1
100
AcDbAlignedDimension
13
380
23
275
33
0
14
225
24
235
34
0
100
AcDbRotatedDimension
0
DIMENSION
5
106
100
AcDbEntity
8
dimension instrument panel
6
ByLayer
62
256
370
-1
100
AcDbDimension
10
135
20
182.03125
30
0
11
257.5
21
183.90625
31
0
70
32
71
5
3
Standard
53
0
210
0
220
0
230
1
100
AcDbAlignedDimension
13
380
23
275
33
0
14
135
24
235
34
0
100
AcDbRotatedDimension
0
DIMENSION
5
107
100
AcDbEntity
8
dimension instrument panel
6
ByLayer
62
256
370
-1
100
AcDbDimension
10
50
20
-16.40625
30
0
11
20
21
-14.53125
31
0
70
32
71
5
3
Standard
53
0
210
0
220
0
230
1
100
AcDbAlignedDimension
13
-10
23
15
33
0
14
50
24
50
34
0
100
AcDbRotatedDimension
0
ENDBLK
5
5B
330
59
100
AcDbEntity
8
0
100
AcDbBlockEnd
0
BLOCK
5
5D
330
5C
100
AcDbEntity
8
0
100
AcDbBlockBegin
2
switch_panel
70
0
10
0
20
0
3
switch_panel
1

0
IMAGE
5
10A
100
AcDbEntity
8
aide
6
ByLayer
62
256
370
-1
100
AcDbRasterImage
10
-1.49816720972
20
14.7992030139
30
0
11
0.47
21
0
31
0
12
0
22
0.47
32
0
13
888
23
266
340
108
70
1
280
0
281
50
282
50
283
0
360
109
0
LINE
5
10B
100
AcDbEntity
8
switch panel
6
ByLayer
62
256
370
-1
100
AcDbLine
10
0
20
0
11
415
21
0
0
LINE
5
10C
100
AcDbEntity
8
switch panel
6
ByLayer
62
256
370
-1
100
AcDbLine
10
415
20
0
11
415
21
140
0
LINE
5
10D
100
AcDbEntity
8
switch panel
6
ByLayer
62
256
370
-1
100
AcDbLine
10
0
20
140
11
0
21
0
0
LINE
5
10E
100
AcDbEntity
8
switch panel
6
ByLayer
62
256
370
-1
100
AcDbLine
10
226
20
92
11
190
21
140
0
LINE
5
10F
100
AcDbEntity
8
switch panel
6
ByLayer
62
256
370
-1
100
AcDbLine
10
190
20
140
11
226
21
92
0
LINE
5
110
100
AcDbEntity
8
switch panel
6
ByLayer
62
256
370
-1
100
AcDbLine
10
226
20
92
11
242
21
92
0
LINE
5
111
100
AcDbEntity
8
switch panel
6
ByLayer
62
256
370
-1
100
AcDbLine
10
242
20
92
11
278
21
140
0
LINE
5
112
100
AcDbEntity
8
switch panel
6
ByLayer
62
256
370
-1
100
AcDbLine
10
278
20
140
11
415
21
140
0
LINE
5
113
100
AcDbEntity
8
switch panel
6
ByLayer
62
256
370
-1
100
AcDbLine
10
190
20
140
11
0
21
140
0
LINE
5
114
100
AcDbEntity
8
aide
6
ByLayer
62
256
370
-1
100
AcDbLine
10
0
20
35
11
415
21
35
0
LINE
5
115
100
AcDbEntity
8
aide
6
ByLayer
62
256
370
-1
100
AcDbLine
10
0
20
110
11
415
21
110
0
LINE
5
116
100
AcDbEntity
8
aide
6
ByLayer
62
256
370
-1
100
AcDbLine
10
0
20
75
11
415
21
75
0
LINE
5
117
100
AcDbEntity
8
aide
6
ByLayer
62
256
370
-1
100
AcDbLine
10
20
20
0
11
20
21
140
0
LINE
5
118
100
AcDbEntity
8
aide
6
ByLayer
62
256
370
-1
100
AcDbLine
10
45
20
0
11
45
21
140
0
LINE
5
119
100
AcDbEntity
8
aide
6
ByLayer
62
256
370
-1
100
AcDbLine
10
70
20
0
11
70
21
140
0
LINE
5
11A
100
AcDbEntity
8
aide
6
ByLayer
62
256
370
-1
100
AcDbLine
10
95
20
0
11
95
21
140
0
LINE
5
11B
100
AcDbEntity
8
aide
6
ByLayer
62
256
370
-1
100
AcDbLine
10
120
20
0
11
120
21
140
0
LINE
5
11C
100
AcDbEntity
8
aide
6
ByLayer
62
256
370
-1
100
AcDbLine
10
145
20
0
11
145
21
140
0
LINE
5
11D
100
AcDbEntity
8
aide
6
ByLayer
62
256
370
-1
100
AcDbLine
10
170
20
0
11
170
21
140
0
LINE
5
11E
100
AcDbEntity
8
aide
6
ByLayer
62
256
370
-1
100
AcDbLine
10
195
20
0
11
195
21
140
0
LINE
5
11F
100
AcDbEntity
8
aide
6
ByLayer
62
256
370
-1
100
AcDbLine
10
220
20
0
11
220
21
140
0
LINE
5
120
100
AcDbEntity
8
aide
6
ByLayer
62
256
370
-1
100
AcDbLine
10
245
20
0
11
245
21
140
0
LINE
5
121
100
AcDbEntity
8
aide
6
ByLayer
62
256
370
-1
100
AcDbLine
10
270
20
0
11
270
21
140
0
LINE
5
122
100
AcDbEntity
8
aide
6
ByLayer
62
256
370
-1
100
AcDbLine
10
295
20
0
11
295
21
140
0
LINE
5
123
100
AcDbEntity
8
aide
6
ByLayer
62
256
370
-1
100
AcDbLine
10
320
20
0
11
320
21
140
0
LINE
5
124
100
AcDbEntity
8
aide
6
ByLayer
62
256
370
-1
100
AcDbLine
10
345
20
0
11
345
21
140
0
LINE
5
125
100
AcDbEntity
8
aide
6
ByLayer
62
256
370
-1
100
AcDbLine
10
370
20
0
11
370
21
140
0
CIRCLE
5
126
100
AcDbEntity
8
switch panel
6
ByLayer
62
256
370
-1
100
AcDbCircle
10
345
20
35
40
3
0
CIRCLE
5
127
100
AcDbEntity
8
switch panel
6
ByLayer
62
256
370
-1
100
AcDbCircle
10
320
20
35
40
3
0
CIRCLE
5
128
100
AcDbEntity
8
switch panel
6
ByLayer
62
256
370
-1
100
AcDbCircle
10
295
20
35
40
3
0
CIRCLE
5
129
100
AcDbEntity
8
switch panel
6
ByLayer
62
256
370
-1
100
AcDbCircle
10
270
20
35
40
3
0
CIRCLE
5
12A
100
AcDbEntity
8
switch panel
6
ByLayer
62
256
370
-1
100
AcDbCircle
10
245
20
35
40
3
0
CIRCLE
5
12B
100
AcDbEntity
8
switch panel
6
ByLayer
62
256
370
-1
100
AcDbCircle
10
220
20
35
40
3
0
CIRCLE
5
12C
100
AcDbEntity
8
switch panel
6
ByLayer
62
256
370
-1
100
AcDbCircle
10
195
20
35
40
3
0
CIRCLE
5
12D
100
AcDbEntity
8
switch panel
6
ByLayer
62
256
370
-1
100
AcDbCircle
10
170
20
35
40
3
0
CIRCLE
5
12E
100
AcDbEntity
8
switch panel
6
ByLayer
62
256
370
-1
100
AcDbCircle
10
20
20
75
40
3
0
CIRCLE
5
12F
100
AcDbEntity
8
switch panel
6
ByLayer
62
256
370
-1
100
AcDbCircle
10
70
20
75
40
3
0
CIRCLE
5
130
100
AcDbEntity
8
switch panel
6
ByLayer
62
256
370
-1
100
AcDbCircle
10
95
20
75
40
3
0
CIRCLE
5
131
100
AcDbEntity
8
switch panel
6
ByLayer
62
256
370
-1
100
AcDbCircle
10
120
20
75
40
3
0
CIRCLE
5
132
100
AcDbEntity
8
switch panel
6
ByLayer
62
256
370
-1
100
AcDbCircle
10
145
20
75
40
3
0
CIRCLE
5
133
100
AcDbEntity
8
switch panel
6
ByLayer
62
256
370
-1
100
AcDbCircle
10
20
20
110
40
3
0
CIRCLE
5
134
100
AcDbEntity
8
switch panel
6
ByLayer
62
256
370
-1
100
AcDbCircle
10
45
20
110
40
3
0
CIRCLE
5
135
100
AcDbEntity
8
switch panel
6
ByLayer
62
256
370
-1
100
AcDbCircle
10
70
20
110
40
3
0
CIRCLE
5
136
100
AcDbEntity
8
switch panel
6
ByLayer
62
256
370
-1
100
AcDbCircle
10
120
20
110
40
3
0
CIRCLE
5
137
100
AcDbEntity
8
switch panel
6
ByLayer
62
256
370
-1
100
AcDbCircle
10
145
20
110
40
3
0
CIRCLE
5
138
100
AcDbEntity
8
switch panel
6
ByLayer
62
256
370
-1
100
AcDbCircle
10
345
20
75
40
3
0
CIRCLE
5
139
100
AcDbEntity
8
switch panel
6
ByLayer
62
256
370
-1
100
AcDbCircle
10
320
20
75
40
3
0
CIRCLE
5
13A
100
AcDbEntity
8
switch panel
6
ByLayer
62
256
370
-1
100
AcDbCircle
10
345
20
110
40
3
0
CIRCLE
5
13B
100
AcDbEntity
8
switch panel
6
ByLayer
62
256
370
-1
100
AcDbCircle
10
320
20
110
40
3
0
CIRCLE
5
13C
100
AcDbEntity
8
switch panel
6
ByLayer
62
256
370
-1
100
AcDbCircle
10
295
20
75
40
3
0
CIRCLE
5
13D
100
AcDbEntity
8
switch panel
6
ByLayer
62
256
370
-1
100
AcDbCircle
10
270
20
75
40
3
0
CIRCLE
5
13E
100
AcDbEntity
8
switch panel
6
ByLayer
62
256
370
-1
100
AcDbCircle
10
70
20
35
40
4.5
0
CIRCLE
5
13F
100
AcDbEntity
8
switch panel
6
ByLayer
62
256
370
-1
100
AcDbCircle
10
120
20
35
40
4.5
0
LINE
5
140
100
AcDbEntity
8
aide
6
ByLayer
62
256
370
-1
100
AcDbLine
10
395
20
0
11
395
21
140
0
LINE
5
141
100
AcDbEntity
8
switch panel
6
ByLayer
62
256
370
-1
100
AcDbLine
10
380
20
35
11
395
21
35
0
LINE
5
142
100
AcDbEntity
8
switch panel
6
ByLayer
62
256
370
-1
100
AcDbLine
10
395
20
35
11
395
21
75
0
LINE
5
143
100
AcDbEntity
8
switch panel
6
ByLayer
62
256
370
-1
100
AcDbLine
10
395
20
75
11
380
21
75
0
LINE
5
144
100
AcDbEntity
8
switch panel
6
ByLayer
62
256
370
-1
100
AcDbLine
10
380
20
75
11
380
21
35
0
LINE
5
145
100
AcDbEntity
8
switch panel
6
ByLayer
62
256
370
-1
100
AcDbLine
10
380
20
75
11
395
21
35
0
LINE
5
146
100
AcDbEntity
8
switch panel
6
ByLayer
62
256
370
-1
100
AcDbLine
10
395
20
75
11
380
21
35
0
LINE
5
147
100
AcDbEntity
8
switch panel
6
ByLayer
62
256
370
-1
100
AcDbLine
10
317
20
75
11
323
21
75
0
LINE
5
148
100
AcDbEntity
8
switch panel
6
ByLayer
62
256
370
-1
100
AcDbLine
10
320
20
78
11
320
21
72
0
LINE
5
149
100
AcDbEntity
8
switch panel
6
ByLayer
62
256
370
-1
100
AcDbLine
10
342
20
75
11
348
21
75
0
LINE
5
14A
100
AcDbEntity
8
switch panel
6
ByLayer
62
256
370
-1
100
AcDbLine
10
345
20
78
11
345
21
72
0
LINE
5
14B
100
AcDbEntity
8
switch panel
6
ByLayer
62
256
370
-1
100
AcDbLine
10
295
20
78
11
295
21
72
0
LINE
5
14C
100
AcDbEntity
8
switch panel
6
ByLayer
62
256
370
-1
100
AcDbLine
10
298
20
75
11
292
21
75
0
LINE
5
14D
100
AcDbEntity
8
switch panel
6
ByLayer
62
256
370
-1
100
AcDbLine
10
273
20
75
11
267
21
75
0
LINE
5
14E
100
AcDbEntity
8
switch panel
6
ByLayer
62
256
370
-1
100
AcDbLine
10
270
20
78
11
270
21
72
0
LINE
5
14F
100
AcDbEntity
8
switch panel
6
ByLayer
62
256
370
-1
100
AcDbLine
10
270
20
38
11
270
21
32
0
LINE
5
150
100
AcDbEntity
8
switch panel
6
ByLayer
62
256
370
-1
100
AcDbLine
10
273
20
35
11
267
21
35
0
LINE
5
151
100
AcDbEntity
8
switch panel
6
ByLayer
62
256
370
-1
100
AcDbLine
10
292
20
35
11
298
21
35
0
LINE
5
152
100
AcDbEntity
8
switch panel
6
ByLayer
62
256
370
-1
100
AcDbLine
10
295
20
38
11
295
21
32
0
LINE
5
153
100
AcDbEntity
8
switch panel
6
ByLayer
62
256
370
-1
100
AcDbLine
10
320
20
38
11
320
21
32
0
LINE
5
154
100
AcDbEntity
8
switch panel
6
ByLayer
62
256
370
-1
100
AcDbLine
10
323
20
35
11
317
21
35
0
LINE
5
155
100
AcDbEntity
8
switch panel
6
ByLayer
62
256
370
-1
100
AcDbLine
10
345
20
38
11
345
21
32
0
LINE
5
156
100
AcDbEntity
8
switch panel
6
ByLayer
62
256
370
-1
100
AcDbLine
10
348
20
35
11
342
21
35
0
LINE
5
157
100
AcDbEntity
8
switch panel
6
ByLayer
62
256
370
-1
100
AcDbLine
10
345
20
107
11
345
21
113
0
LINE
5
158
100
AcDbEntity
8
switch panel
6
ByLayer
62
256
370
-1
100
AcDbLine
10
348
20
110
11
342
21
110
0
LINE
5
159
100
AcDbEntity
8
switch panel
6
ByLayer
62
256
370
-1
100
AcDbLine
10
317
20
110
11
323
21
110
0
LINE
5
15A
100
AcDbEntity
8
switch panel
6
ByLayer
62
256
370
-1
100
AcDbLine
10
320
20
113
11
320
21
107
0
LINE
5
15B
100
AcDbEntity
8
switch panel
6
ByLayer
62
256
370
-1
100
AcDbLine
10
245
20
38
11
245
21
32
0
LINE
5
15C
100
AcDbEntity
8
switch panel
6
ByLayer
62
256
370
-1
100
AcDbLine
10
248
20
35
11
242
21
35
0
LINE
5
15D
100
AcDbEntity
8
switch panel
6
ByLayer
62
256
370
-1
100
AcDbLine
10
217
20
35
11
223
21
35
0
LINE
5
15E
100
AcDbEntity
8
switch panel
6
ByLayer
62
256
370
-1
100
AcDbLine
10
220
20
38
11
220
21
32
0
LINE
5
15F
100
AcDbEntity
8
switch panel
6
ByLayer
62
256
370
-1
100
AcDbLine
10
192
20
35
11
198
21
35
0
LINE
5
160
100
AcDbEntity
8
switch panel
6
ByLayer
62
256
370
-1
100
AcDbLine
10
195
20
38
11
195
21
32
0
LINE
5
161
100
AcDbEntity
8
switch panel
6
ByLayer
62
256
370
-1
100
AcDbLine
10
167
20
35
11
173
21
35
0
LINE
5
162
100
AcDbEntity
8
switch panel
6
ByLayer
62
256
370
-1
100
AcDbLine
10
170
20
38
11
170
21
32
0
LINE
5
163
100
AcDbEntity
8
switch panel
6
ByLayer
62
256
370
-1
100
AcDbLine
10
65.5
20
35
11
74.5
21
35
0
LINE
5
164
100
AcDbEntity
8
switch panel
6
ByLayer
62
256
370
-1
100
AcDbLine
10
70
20
39.5
11
70
21
30.5
0
LINE
5
165
100
AcDbEntity
8
switch panel
6
ByLayer
62
256
370
-1
100
AcDbLine
10
120
20
39.5
11
120
21
30.5
0
LINE
5
166
100
AcDbEntity
8
switch panel
6
ByLayer
62
256
370
-1
100
AcDbLine
10
124.5
20
35
11
115.5
21
35
0
LINE
5
167
100
AcDbEntity
8
switch panel
6
ByLayer
62
256
370
-1
100
AcDbLine
10
17
20
110
11
23
21
110
0
LINE
5
168
100
AcDbEntity
8
switch panel
6
ByLayer
62
256
370
-1
100
AcDbLine
10
20
20
113
11
20
21
107
0
LINE
5
169
100
AcDbEntity
8
switch panel
6
ByLayer
62
256
370
-1
100
AcDbLine
10
45
20
107
11
45
21
113
0
LINE
5
16A
100
AcDbEntity
8
switch panel
6
ByLayer
62
256
370
-1
100
AcDbLine
10
48
20
110
11
42
21
110
0
LINE
5
16B
100
AcDbEntity
8
switch panel
6
ByLayer
62
256
370
-1
100
AcDbLine
10
67
20
110
11
73
21
110
0
LINE
5
16C
100
AcDbEntity
8
switch panel
6
ByLayer
62
256
370
-1
100
AcDbLine
10
70
20
113
11
70
21
107
0
LINE
5
16D
100
AcDbEntity
8
switch panel
6
ByLayer
62
256
370
-1
100
AcDbLine
10
117
20
110
11
123
21
110
0
LINE
5
16E
100
AcDbEntity
8
switch panel
6
ByLayer
62
256
370
-1
100
AcDbLine
10
120
20
107
11
120
21
113
0
LINE
5
16F
100
AcDbEntity
8
switch panel
6
ByLayer
62
256
370
-1
100
AcDbLine
10
145
20
113
11
145
21
107
0
LINE
5
170
100
AcDbEntity
8
switch panel
6
ByLayer
62
256
370
-1
100
AcDbLine
10
142
20
110
11
148
21
110
0
LINE
5
171
100
AcDbEntity
8
switch panel
6
ByLayer
62
256
370
-1
100
AcDbLine
10
142
20
75
11
148
21
75
0
LINE
5
172
100
AcDbEntity
8
switch panel
6
ByLayer
62
256
370
-1
100
AcDbLine
10
145
20
78
11
145
21
72
0
LINE
5
173
100
AcDbEntity
8
switch panel
6
ByLayer
62
256
370
-1
100
AcDbLine
10
120
20
78
11
120
21
72
0
LINE
5
174
100
AcDbEntity
8
switch panel
6
ByLayer
62
256
370
-1
100
AcDbLine
10
123
20
75
11
117
21
75
0
LINE
5
175
100
AcDbEntity
8
switch panel
6
ByLayer
62
256
370
-1
100
AcDbLine
10
98
20
75
11
92
21
75
0
LINE
5
176
100
AcDbEntity
8
switch panel
6
ByLayer
62
256
370
-1
100
AcDbLine
10
95
20
78
11
95
21
72
0
LINE
5
177
100
AcDbEntity
8
switch panel
6
ByLayer
62
256
370
-1
100
AcDbLine
10
73
20
75
11
67
21
75
0
LINE
5
178
100
AcDbEntity
8
switch panel
6
ByLayer
62
256
370
-1
100
AcDbLine
10
70
20
78
11
70
21
72
0
LINE
5
179
100
AcDbEntity
8
switch panel
6
ByLayer
62
256
370
-1
100
AcDbLine
10
20
20
78
11
20
21
72
0
LINE
5
17A
100
AcDbEntity
8
switch panel
6
ByLayer
62
256
370
-1
100
AcDbLine
10
23
20
75
11
17
21
75
0
CIRCLE
5
17B
100
AcDbEntity
8
switch panel
6
ByLayer
62
256
370
-1
100
AcDbCircle
10
370
20
90
40
5
0
CIRCLE
5
17C
100
AcDbEntity
8
switch panel
6
ByLayer
62
256
370
-1
100
AcDbCircle
10
385
20
90
40
5
0
CIRCLE
5
17D
100
AcDbEntity
8
switch panel
6
ByLayer
62
256
370
-1
100
AcDbCircle
10
377.5
20
105
40
5
0
LINE
5
17E
100
AcDbEntity
8
aide
6
ByLayer
62
256
370
-1
100
AcDbLine
10
377.5
20
0
11
377.5
21
140
0
LINE
5
17F
100
AcDbEntity
8
aide
6
ByLayer
62
256
370
-1
100
AcDbLine
10
385
20
0
11
385
21
140
0
LINE
5
180
100
AcDbEntity
8
aide
6
ByLayer
62
256
370
-1
100
AcDbLine
10
405
20
0
11
405
21
140
0
LINE
5
181
100
AcDbEntity
8
aide
6
ByLayer
62
256
370
-1
100
AcDbLine
10
0
20
90
11
415
21
90
0
LINE
5
182
100
AcDbEntity
8
aide
6
ByLayer
62
256
370
-1
100
AcDbLine
10
0
20
105
11
415
21
105
0
LINE
5
183
100
AcDbEntity
8
switch panel
6
ByLayer
62
256
370
-1
100
AcDbLine
10
365
20
90
11
375
21
90
0
LINE
5
184
100
AcDbEntity
8
switch panel
6
ByLayer
62
256
370
-1
100
AcDbLine
10
370
20
95
11
370
21
85
0
LINE
5
185
100
AcDbEntity
8
switch panel
6
ByLayer
62
256
370
-1
100
AcDbLine
10
377.5
20
110
11
377.5
21
100
0
LINE
5
186
100
AcDbEntity
8
switch panel
6
ByLayer
62
256
370
-1
100
AcDbLine
10
382.5
20
105
11
372.5
21
105
0
LINE
5
187
100
AcDbEntity
8
switch panel
6
ByLayer
62
256
370
-1
100
AcDbLine
10
385
20
95
11
385
21
85
0
LINE
5
188
100
AcDbEntity
8
switch panel
6
ByLayer
62
256
370
-1
100
AcDbLine
10
380
20
90
11
390
21
90
0
CIRCLE
5
189
100
AcDbEntity
8
switch panel
6
ByLayer
62
256
370
-1
100
AcDbCircle
10
400
20
100
40
5
0
LINE
5
18A
100
AcDbEntity
8
switch panel
6
ByLayer
62
256
370
-1
100
AcDbLine
10
405
20
100
11
395
21
100
0
LINE
5
18B
100
AcDbEntity
8
switch panel
6
ByLayer
62
256
370
-1
100
AcDbLine
10
400
20
105
11
400
21
95
0
CIRCLE
5
18C
100
AcDbEntity
8
switch panel
6
ByLayer
62
256
370
-1
100
AcDbCircle
10
30
20
35
40
8
0
LINE
5
18D
100
AcDbEntity
8
switch panel
6
ByLayer
62
256
370
-1
100
AcDbLine
10
22
20
35
11
38
21
35
0
LINE
5
18E
100
AcDbEntity
8
switch panel
6
ByLayer
62
256
370
-1
100
AcDbLine
10
30
20
43
11
30
21
27
0
DIMENSION
5
18F
100
AcDbEntity
8
dimension switch panel
6
ByLayer
62
256
370
-1
100
AcDbDimension
10
190
20
160
30
0
11
95
21
161.875
31
0
70
33
71
5
3
Standard
53
0
210
0
220
0
230
1
100
AcDbAlignedDimension
13
0
23
140
33
0
14
190
24
140
34
0
0
DIMENSION
5
190
100
AcDbEntity
8
dimension switch panel
6
ByLayer
62
256
370
-1
100
AcDbDimension
10
-20
20
4.89842541529e-015
30
0
11
-21.875
21
70
31
0
70
33
71
5
3
Standard
53
0
210
0
220
0
230
1
100
AcDbAlignedDimension
13
0
23
140
33
0
14
0
24
0
34
0
0
DIMENSION
5
191
100
AcDbEntity
8
dimension switch panel
6
ByLayer
62
256
370
-1
100
AcDbDimension
10
242
20
80
30
0
11
234
21
81.875
31
0
70
33
71
5
3
Standard
53
0
210
0
220
0
230
1
100
AcDbAlignedDimension
13
226
23
92
33
0
14
242
24
92
34
0
0
DIMENSION
5
192
100
AcDbEntity
8
dimension switch panel
6
ByLayer
62
256
370
-1
100
AcDbDimension
10
395
20
30
30
0
11
387.5
21
31.875
31
0
70
33
71
5
3
Standard
53
0
210
0
220
0
230
1
100
AcDbAlignedDimension
13
380
23
35
33
0
14
395
24
35
34
0
0
DIMENSION
5
193
100
AcDbEntity
8
dimension switch panel
6
ByLayer
62
256
370
-1
100
AcDbDimension
10
374.027640665
20
75
30
0
11
372.152640665
21
55
31
0
70
33
71
5
3
Standard
53
0
210
0
220
0
230
1
100
AcDbAlignedDimension
13
380
23
35
33
0
14
380
24
75
34
0
0
DIMENSION
5
194
100
AcDbEntity
8
dimension switch panel
6
ByLayer
62
256
370
-1
100
AcDbDimension
10
226
20
80
30
0
11
208
21
81.875
31
0
70
32
71
5
3
Standard
53
0
210
0
220
0
230
1
100
AcDbAlignedDimension
13
190
23
140
33
0
14
226
24
92
34
0
100
AcDbRotatedDimension
0
DIMENSION
5
195
100
AcDbEntity
8
dimension switch panel
6
ByLayer
62
256
370
-1
100
AcDbDimension
10
278
20
80
30
0
11
260
21
81.875
31
0
70
32
71
5
3
Standard
53
0
210
0
220
0
230
1
100
AcDbAlignedDimension
13
242
23
92
33
0
14
278
24
140
34
0
100
AcDbRotatedDimension
0
DIMENSION
5
196
100
AcDbEntity
8
dimension switch panel
6
ByLayer
62
256
370
-1
100
AcDbDimension
10
230
20
92
30
0
11
228.125
21
116
31
0
70
32
71
5
3
Standard
53
0
210
0
220
0
230
1
100
AcDbAlignedDimension
13
190
23
140
33
0
14
226
24
92
34
0
50
90
100
AcDbRotatedDimension
0
DIMENSION
5
197
100
AcDbEntity
8
dimension switch panel
6
ByLayer
62
256
370
-1
100
AcDbDimension
10
95
20
1.19972857746e-031
30
0
11
93.125
21
37.5
31
0
70
32
71
5
3
Standard
53
0
210
0
220
0
230
1
100
AcDbAlignedDimension
13
95
23
75
33
0
14
95
24
0
34
0
50
90
100
AcDbRotatedDimension
0
DIMENSION
5
198
100
AcDbEntity
8
dimension switch panel
6
ByLayer
62
256
370
-1
100
AcDbDimension
10
70
20
2.99932144364e-031
30
0
11
68.125
21
17.5
31
0
70
32
71
5
3
Standard
53
0
210
0
220
0
230
1
100
AcDbAlignedDimension
13
70
23
35
33
0
14
70
24
0
34
0
50
90
100
AcDbRotatedDimension
0
DIMENSION
5
199
100
AcDbEntity
8
dimension switch panel
6
ByLayer
62
256
370
-1
100
AcDbDimension
10
440
20
100
30
0
11
438.125
21
120
31
0
70
32
71
5
3
Standard
53
0
210
0
220
0
230
1
100
AcDbAlignedDimension
13
400
23
140
33
0
14
400
24
100
34
0
50
90
100
AcDbRotatedDimension
0
DIMENSION
5
19A
100
AcDbEntity
8
dimension switch panel
6
ByLayer
62
256
370
-1
100
AcDbDimension
10
450
20
140
30
0
11
448.125
21
115
31
0
70
32
71
5
3
Standard
53
0
210
0
220
0
230
1
100
AcDbAlignedDimension
13
385
23
90
33
0
14
385
24
140
34
0
50
90
100
AcDbRotatedDimension
0
DIMENSION
5
19B
100
AcDbEntity
8
dimension switch panel
6
ByLayer
62
256
370
-1
100
AcDbDimension
10
430
20
140
30
0
11
428.125
21
122.5
31
0
70
32
71
5
3
Standard
53
0
210
0
220
0
230
1
100
AcDbAlignedDimension
13
377.5
23
105
33
0
14
377.5
24
140
34
0
50
90
100
AcDbRotatedDimension
0
DIMENSION
5
19C
100
AcDbEntity
8
dimension switch panel
6
ByLayer
62
256
370
-1
100
AcDbDimension
10
415
20
150
30
0
11
407.5
21
151.875
31
0
70
32
71
5
3
Standard
53
0
210
0
220
0
230
1
100
AcDbAlignedDimension
13
400
23
100
33
0
14
415
24
140
34
0
100
AcDbRotatedDimension
0
DIMENSION
5
19D
100
AcDbEntity
8
dimension switch panel
6
ByLayer
62
256
370
-1
100
AcDbDimension
10
415
20
160
30
0
11
400
21
161.875
31
0
70
32
71
5
3
Standard
53
0
210
0
220
0
230
1
100
AcDbAlignedDimension
13
385
23
90
33
0
14
415
24
140
34
0
100
AcDbRotatedDimension
0
DIMENSION
5
19E
100
AcDbEntity
8
dimension switch panel
6
ByLayer
62
256
370
-1
100
AcDbDimension
10
415
20
170
30
0
11
396.25
21
171.875
31
0
70
32
71
5
3
Standard
53
0
210
0
220
0
230
1
100
AcDbAlignedDimension
13
377.5
23
105
33
0
14
415
24
140
34
0
100
AcDbRotatedDimension
0
DIMENSION
5
19F
100
AcDbEntity
8
dimension switch panel
6
ByLayer
62
256
370
-1
100
AcDbDimension
10
415
20
20
30
0
11
380
21
21.875
31
0
70
32
71
5
3
Standard
53
0
210
0
220
0
230
1
100
AcDbAlignedDimension
13
345
23
35
33
0
14
415
24
35
34
0
100
AcDbRotatedDimension
0
DIMENSION
5
1A0
100
AcDbEntity
8
dimension switch panel
6
ByLayer
62
256
370
-1
100
AcDbDimension
10
320
20
44
30
0
11
332.5
21
45.875
31
0
70
32
71
5
3
Standard
53
0
210
0
220
0
230
1
100
AcDbAlignedDimension
13
345
23
35
33
0
14
320
24
35
34
0
100
AcDbRotatedDimension
0
DIMENSION
5
1A1
100
AcDbEntity
8
dimension switch panel
6
ByLayer
62
256
370
-1
100
AcDbDimension
10
20
20
120
30
0
11
10
21
121.875
31
0
70
32
71
5
3
Standard
53
0
210
0
220
0
230
1
100
AcDbAlignedDimension
13
0
23
110
33
0
14
20
24
110
34
0
100
AcDbRotatedDimension
0
DIMENSION
5
1A2
100
AcDbEntity
8
dimension switch panel
6
ByLayer
62
256
370
-1
100
AcDbDimension
10
45
20
120
30
0
11
32.5
21
121.875
31
0
70
32
71
5
3
Standard
53
0
210
0
220
0
230
1
100
AcDbAlignedDimension
13
20
23
110
33
0
14
45
24
110
34
0
100
AcDbRotatedDimension
0
DIMENSION
5
1A3
100
AcDbEntity
8
dimension switch panel
6
ByLayer
62
256
370
-1
100
AcDbDimension
10
45
20
2.24949108273e-031
30
0
11
43.125
21
55
31
0
70
32
71
5
3
Standard
53
0
210
0
220
0
230
1
100
AcDbAlignedDimension
13
45
23
110
33
0
14
45
24
0
34
0
50
90
100
AcDbRotatedDimension
0
DIMENSION
5
1A4
100
AcDbEntity
8
dimension switch panel
6
ByLayer
62
256
370
-1
100
AcDbDimension
10
8.57224447676e-016
20
49
30
0
11
15
21
50.875
31
0
70
32
71
5
3
Standard
53
0
210
0
220
0
230
1
100
AcDbAlignedDimension
13
30
23
35
33
0
14
0
24
35
34
0
100
AcDbRotatedDimension
0
DIMENSION
5
1A5
100
AcDbEntity
8
dimension switch panel
6
ByLayer
62
256
370
-1
100
AcDbDimension
10
415
20
-10
30
0
11
207.5
21
-8.125
31
0
70
32
71
5
3
Standard
53
0
210
0
220
0
230
1
100
AcDbAlignedDimension
13
0
23
0
33
0
14
415
24
0
34
0
100
AcDbRotatedDimension
0
DIMENSION
5
1A6
100
AcDbEntity
8
dimension switch panel
6
ByLayer
62
256
370
-1
100
AcDbDimension
10
415
20
180
30
0
11
392.5
21
181.875
31
0
70
32
71
5
3
Standard
53
0
210
0
220
0
230
1
100
AcDbAlignedDimension
13
370
23
90
33
0
14
415
24
90
34
0
100
AcDbRotatedDimension
0
DIMENSION
5
1A7
100
AcDbEntity
8
dimension switch panel
6
ByLayer
62
256
370
-1
100
AcDbDimension
10
415
20
79
30
0
11
405
21
80.875
31
0
70
32
71
5
3
Standard
53
0
210
0
220
0
230
1
100
AcDbAlignedDimension
13
395
23
75
33
0
14
415
24
75
34
0
100
AcDbRotatedDimension
0
DIMENSION
5
1A8
100
AcDbEntity
8
dimension switch panel
6
ByLayer
62
256
370
-1
100
AcDbDimension
10
424
20
-3.55135842608e-015
30
0
11
422.125
21
17.5
31
0
70
32
71
5
3
Standard
53
0
210
0
220
0
230
1
100
AcDbAlignedDimension
13
395
23
35
33
0
14
395
24
0
34
0
50
90
100
AcDbRotatedDimension
0
ENDBLK
5
5E
330
5C
100
AcDbEntity
8
0
100
AcDbBlockEnd
0
BLOCK
5
60
330
5F
100
AcDbEntity
8
0
100
AcDbBlockBegin
2
engine_panel
70
0
10
0
20
0
3
engine_panel
1

0
LINE
5
1A9
100
AcDbEntity
8
aide
6
ByLayer
62
256
370
-1
100
AcDbLine
10
38
20
0
11
38
21
320
0
LINE
5
1AA
100
AcDbEntity
8
aide
6
ByLayer
62
256
370
-1
100
AcDbLine
10
94
20
0
11
94
21
320
0
LINE
5
1AB
100
AcDbEntity
8
aide
6
ByLayer
62
256
370
-1
100
AcDbLine
10
0
20
47
11
132
21
47
0
LINE
5
1AC
100
AcDbEntity
8
aide
6
ByLayer
62
256
370
-1
100
AcDbLine
10
0
20
100
11
132
21
100
0
LINE
5
1AD
100
AcDbEntity
8
aide
6
ByLayer
62
256
370
-1
100
AcDbLine
10
0
20
206
11
132
21
206
0
LINE
5
1AE
100
AcDbEntity
8
aide
6
ByLayer
62
256
370
-1
100
AcDbLine
10
0
20
259
11
132
21
259
0
LINE
5
1AF
100
AcDbEntity
8
aide
6
ByLayer
62
256
370
-1
100
AcDbLine
10
0
20
153
11
132
21
153
0
LINE
5
1B0
100
AcDbEntity
8
engine panel
6
ByLayer
62
256
370
-1
100
AcDbLine
10
130
20
360
11
0
21
360
0
LINE
5
1B1
100
AcDbEntity
8
engine panel
6
ByLayer
62
256
370
-1
100
AcDbLine
10
0
20
10
11
130
21
10
0
LINE
5
1B2
100
AcDbEntity
8
engine panel
6
ByLayer
62
256
370
-1
100
AcDbLine
10
0
20
10
11
0
21
360
0
LINE
5
1B3
100
AcDbEntity
8
engine panel
6
ByLayer
62
256
370
-1
100
AcDbLine
10
130
20
360
11
130
21
10
0
CIRCLE
5
1B4
100
AcDbEntity
8
engine panel
6
ByLayer
62
256
370
-1
100
AcDbCircle
10
38
20
79
40
23
0
CIRCLE
5
1B5
100
AcDbEntity
8
engine panel
6
ByLayer
62
256
370
-1
100
AcDbCircle
10
94
20
79
40
23
0
CIRCLE
5
1B6
100
AcDbEntity
8
engine panel
6
ByLayer
62
256
370
-1
100
AcDbCircle
10
38
20
291
40
23
0
CIRCLE
5
1B7
100
AcDbEntity
8
engine panel
6
ByLayer
62
256
370
-1
100
AcDbCircle
10
38
20
238
40
23
0
CIRCLE
5
1B8
100
AcDbEntity
8
engine panel
6
ByLayer
62
256
370
-1
100
AcDbCircle
10
38
20
185
40
23
0
CIRCLE
5
1B9
100
AcDbEntity
8
engine panel
6
ByLayer
62
256
370
-1
100
AcDbCircle
10
38
20
132
40
23
0
CIRCLE
5
1BA
100
AcDbEntity
8
engine panel
6
ByLayer
62
256
370
-1
100
AcDbCircle
10
94
20
132
40
23
0
CIRCLE
5
1BB
100
AcDbEntity
8
engine panel
6
ByLayer
62
256
370
-1
100
AcDbCircle
10
94
20
185
40
23
0
CIRCLE
5
1BC
100
AcDbEntity
8
engine panel
6
ByLayer
62
256
370
-1
100
AcDbCircle
10
94
20
238
40
23
0
CIRCLE
5
1BD
100
AcDbEntity
8
engine panel
6
ByLayer
62
256
370
-1
100
AcDbCircle
10
94
20
291
40
23
0
CIRCLE
5
1BE
100
AcDbEntity
8
engine panel
6
ByLayer
62
256
370
-1
100
AcDbCircle
10
66
20
264
40
10
0
DIMENSION
5
1BF
100
AcDbEntity
8
dimension engine panel
6
ByLayer
62
256
370
-1
100
AcDbDimension
10
17.428174607
20
301.285912696
30
0
11
38.8385254916
21
292.677050983
31
0
70
35
71
5
3
Standard
53
0
210
0
220
0
230
1
100
AcDbDiametricDimension
15
58.571825393
25
280.714087304
35
0
40
0
0
DIMENSION
5
1C0
100
AcDbEntity
8
dimension engine panel
6
ByLayer
62
256
370
-1
100
AcDbDimension
10
112.085321793
20
305.209895694
30
0
11
92.8415845901
21
292.474346885
31
0
70
35
71
5
3
Standard
53
0
210
0
220
0
230
1
100
AcDbDiametricDimension
15
75.9146782071
25
276.790104306
35
0
40
0
0
DIMENSION
5
1C1
100
AcDbEntity
8
dimension engine panel
6
ByLayer
62
256
370
-1
100
AcDbDimension
10
73.0710678119
20
256.928932188
30
0
11
67.3258252147
21
265.325825215
31
0
70
35
71
5
3
Standard
53
0
210
0
220
0
230
1
100
AcDbDiametricDimension
15
58.9289321881
25
271.071067812
35
0
40
0
0
DIMENSION
5
1C2
100
AcDbEntity
8
dimension engine panel
6
ByLayer
62
256
370
-1
100
AcDbDimension
10
114.571825393
20
227.714087304
30
0
11
94.8385254916
21
239.677050983
31
0
70
35
71
5
3
Standard
53
0
210
0
220
0
230
1
100
AcDbDiametricDimension
15
73.428174607
25
248.285912696
35
0
40
0
0
DIMENSION
5
1C3
100
AcDbEntity
8
dimension engine panel
6
ByLayer
62
256
370
-1
100
AcDbDimension
10
60.3132775033
20
232.421680624
30
0
11
38.4547542969
21
239.819017188
31
0
70
35
71
5
3
Standard
53
0
210
0
220
0
230
1
100
AcDbDiametricDimension
15
15.6867224967
25
243.578319376
35
0
40
0
0
DIMENSION
5
1C4
100
AcDbEntity
8
dimension engine panel
6
ByLayer
62
256
370
-1
100
AcDbDimension
10
29.4580144439
20
163.64503611
30
0
11
36.2591062046
21
185.696357518
31
0
70
35
71
5
3
Standard
53
0
210
0
220
0
230
1
100
AcDbDiametricDimension
15
46.5419855561
25
206.35496389
35
0
40
0
0
DIMENSION
5
1C5
100
AcDbEntity
8
dimension engine panel
6
ByLayer
62
256
370
-1
100
AcDbDimension
10
108.367986094
20
167.040017383
30
0
11
95.4641290177
21
186.171303214
31
0
70
35
71
5
3
Standard
53
0
210
0
220
0
230
1
100
AcDbDiametricDimension
15
79.6320139062
25
202.959982617
35
0
40
0
0
DIMENSION
5
1C6
100
AcDbEntity
8
dimension engine panel
6
ByLayer
62
256
370
-1
100
AcDbDimension
10
104.285912696
20
111.428174607
30
0
11
95.6770509831
21
132.838525492
31
0
70
35
71
5
3
Standard
53
0
210
0
220
0
230
1
100
AcDbDiametricDimension
15
83.7140873035
25
152.571825393
35
0
40
0
0
DIMENSION
5
1C7
100
AcDbEntity
8
dimension engine panel
6
ByLayer
62
256
370
-1
100
AcDbDimension
10
60.3132775033
20
137.578319376
30
0
11
37.5452457031
21
133.819017188
31
0
70
35
71
5
3
Standard
53
0
210
0
220
0
230
1
100
AcDbDiametricDimension
15
15.6867224967
25
126.421680624
35
0
40
0
0
DIMENSION
5
1C8
100
AcDbEntity
8
dimension engine panel
6
ByLayer
62
256
370
-1
100
AcDbDimension
10
60.8223911644
20
76.1472011044
30
0
11
38.2325651274
21
80.8605210188
31
0
70
35
71
5
3
Standard
53
0
210
0
220
0
230
1
100
AcDbDiametricDimension
15
15.1776088356
25
81.8527988956
35
0
40
0
0
DIMENSION
5
1C9
100
AcDbEntity
8
dimension engine panel
6
ByLayer
62
256
370
-1
100
AcDbDimension
10
116.941550096
20
77.3613178503
30
0
11
94.1335882187
21
80.8702350622
31
0
70
35
71
5
3
Standard
53
0
210
0
220
0
230
1
100
AcDbDiametricDimension
15
71.0584499039
25
80.6386821497
35
0
40
0
0
DIMENSION
5
1CA
100
AcDbEntity
8
dimension engine panel
6
ByLayer
62
256
370
-1
100
AcDbDimension
10
130
20
0
30
0
11
65
21
1.875
31
0
70
33
71
5
3
Standard
53
0
210
0
220
0
230
1
100
AcDbAlignedDimension
13
0
23
10
33
0
14
130
24
10
34
0
0
DIMENSION
5
1CB
100
AcDbEntity
8
dimension engine panel
6
ByLayer
62
256
370
-1
100
AcDbDimension
10
150
20
360
30
0
11
148.125
21
185
31
0
70
33
71
5
3
Standard
53
0
210
0
220
0
230
1
100
AcDbAlignedDimension
13
130
23
10
33
0
14
130
24
360
34
0
0
DIMENSION
5
1CC
100
AcDbEntity
8
dimension engine panel
6
ByLayer
62
256
370
-1
100
AcDbDimension
10
1.41100781233e-015
20
48
30
0
11
19
21
49.875
31
0
70
33
71
5
3
Standard
53
0
210
0
220
0
230
1
100
AcDbAlignedDimension
13
38
23
79
33
0
14
0
24
79
34
0
0
DIMENSION
5
1CD
100
AcDbEntity
8
dimension engine panel
6
ByLayer
62
256
370
-1
100
AcDbDimension
10
7.04690754534e-015
20
40
30
0
11
47
21
41.875
31
0
70
33
71
5
3
Standard
53
0
210
0
220
0
230
1
100
AcDbAlignedDimension
13
94
23
79
33
0
14
0
24
79
34
0
0
DIMENSION
5
1CE
100
AcDbEntity
8
dimension engine panel
6
ByLayer
62
256
370
-1
100
AcDbDimension
10
-10
20
291
30
0
11
-11.875
21
325.5
31
0
70
32
71
5
3
Standard
53
0
210
0
220
0
230
1
100
AcDbAlignedDimension
13
38
23
360
33
0
14
38
24
291
34
0
50
90
100
AcDbRotatedDimension
0
DIMENSION
5
1CF
100
AcDbEntity
8
dimension engine panel
6
ByLayer
62
256
370
-1
100
AcDbDimension
10
10
20
238
30
0
11
8.125
21
264.5
31
0
70
32
71
5
3
Standard
53
0
210
0
220
0
230
1
100
AcDbAlignedDimension
13
38
23
291
33
0
14
38
24
238
34
0
50
90
100
AcDbRotatedDimension
0
DIMENSION
5
1D0
100
AcDbEntity
8
dimension engine panel
6
ByLayer
62
256
370
-1
100
AcDbDimension
10
7.25299604743
20
185
30
0
11
5.37799604743
21
211.5
31
0
70
32
71
5
3
Standard
53
0
210
0
220
0
230
1
100
AcDbAlignedDimension
13
38
23
238
33
0
14
38
24
185
34
0
50
90
100
AcDbRotatedDimension
0
DIMENSION
5
1D1
100
AcDbEntity
8
dimension engine panel
6
ByLayer
62
256
370
-1
100
AcDbDimension
10
123.980901186
20
291
30
0
11
122.105901186
21
277.5
31
0
70
32
71
5
3
Standard
53
0
210
0
220
0
230
1
100
AcDbAlignedDimension
13
66
23
264
33
0
14
94
24
291
34
0
50
90
100
AcDbRotatedDimension
0
DIMENSION
5
1D2
100
AcDbEntity
8
dimension engine panel
6
ByLayer
62
256
370
-1
100
AcDbDimension
10
94
20
329.104695652
30
0
11
80
21
330.979695652
31
0
70
32
71
5
3
Standard
53
0
210
0
220
0
230
1
100
AcDbAlignedDimension
13
66
23
264
33
0
14
94
24
291
34
0
100
AcDbRotatedDimension
0
ENDBLK
5
61
330
5F
100
AcDbEntity
8
0
100
AcDbBlockEnd
0
BLOCK
5
63
330
62
100
AcDbEntity
8
0
100
AcDbBlockBegin
2
gauges_panel
70
0
10
0
20
0
3
gauges_panel
1

0
LINE
5
1D3
100
AcDbEntity
8
gauge panel
6
ByLayer
62
256
370
-1
100
AcDbLine
10
0
20
0
11
250
21
0
0
LINE
5
1D4
100
AcDbEntity
8
gauge panel
6
ByLayer
62
256
370
-1
100
AcDbLine
10
250
20
0
11
250
21
140
0
LINE
5
1D5
100
AcDbEntity
8
gauge panel
6
ByLayer
62
256
370
-1
100
AcDbLine
10
250
20
140
11
0
21
140
0
LINE
5
1D6
100
AcDbEntity
8
gauge panel
6
ByLayer
62
256
370
-1
100
AcDbLine
10
0
20
140
11
0
21
0
0
DIMENSION
5
1D7
100
AcDbEntity
8
autre dimension
6
ByLayer
62
256
370
-1
100
AcDbDimension
10
250
20
158.69140625
30
0
11
125
21
160.56640625
31
0
70
33
71
5
3
Standard
53
0
210
0
220
0
230
1
100
AcDbAlignedDimension
13
0
23
140
33
0
14
250
24
140
34
0
0
DIMENSION
5
1D8
100
AcDbEntity
8
autre dimension
6
ByLayer
62
256
370
-1
100
AcDbDimension
10
273.92578125
20
-5.85993274778e-015
30
0
11
272.05078125
21
70
31
0
70
33
71
5
3
Standard
53
0
210
0
220
0
230
1
100
AcDbAlignedDimension
13
250
23
140
33
0
14
250
24
0
34
0
0
ENDBLK
5
64
330
62
100
AcDbEntity
8
0
100
AcDbBlockEnd
0
BLOCK
5
66
330
65
100
AcDbEntity
8
0
100
AcDbBlockBegin
2
flap_panel
70
0
10
0
20
0
3
flap_panel
1

0
LINE
5
1D9
100
AcDbEntity
8
flap panel
6
ByLayer
62
256
370
-1
100
AcDbLine
10
0
20
0
11
180
21
0
0
LINE
5
1DA
100
AcDbEntity
8
flap panel
6
ByLayer
62
256
370
-1
100
AcDbLine
10
0
20
140
11
0
21
0
0
INSERT
5
1DB
100
AcDbEntity
8
flap panel
6
ByLayer
62
256
370
-1
100
AcDbBlockReference
2
noname2
10
810.568436017
20
336.49772163
30
0
41
1
42
1
43
0
50
0
70
1
71
1
44
0
45
0
0
LINE
5
1DC
100
AcDbEntity
8
flap panel
6
ByLayer
62
256
370
-1
100
AcDbLine
10
106
20
92
11
70
21
140
0
LINE
5
1DD
100
AcDbEntity
8
flap panel
6
ByLayer
62
256
370
-1
100
AcDbLine
10
106
20
92
11
122
21
92
0
LINE
5
1DE
100
AcDbEntity
8
flap panel
6
ByLayer
62
256
370
-1
100
AcDbLine
10
139.25
20
115
11
180
21
115
0
LINE
5
1DF
100
AcDbEntity
8
flap panel
6
ByLayer
62
256
370
-1
100
AcDbLine
10
0
20
140
11
70
21
140
0
LINE
5
1E0
100
AcDbEntity
8
flap panel
6
ByLayer
62
256
370
-1
100
AcDbLine
10
122
20
92
11
139.25
21
115
0
LINE
5
1E1
100
AcDbEntity
8
flap panel
6
ByLayer
62
256
370
-1
100
AcDbLine
10
180
20
115
11
180
21
0
0
CIRCLE
5
1E2
100
AcDbEntity
8
flap panel
6
ByLayer
62
256
370
-1
100
AcDbCircle
10
20
20
120
40
5
0
CIRCLE
5
1E3
100
AcDbEntity
8
flap panel
6
ByLayer
62
256
370
-1
100
AcDbCircle
10
20
20
105
40
5.09901951359
0
CIRCLE
5
1E4
100
AcDbEntity
8
flap panel
6
ByLayer
62
256
370
-1
100
AcDbCircle
10
20
20
90
40
5
0
CIRCLE
5
1E5
100
AcDbEntity
8
flap panel
6
ByLayer
62
256
370
-1
100
AcDbCircle
10
45
20
105
40
6
0
DIMENSION
5
1E6
100
AcDbEntity
8
dimension flap panel
6
ByLayer
62
256
370
-1
100
AcDbDimension
10
70
20
148.369565217
30
0
11
35
21
150.244565217
31
0
70
33
71
5
3
Standard
53
0
210
0
220
0
230
1
100
AcDbAlignedDimension
13
0
23
140
33
0
14
70
24
140
34
0
0
DIMENSION
5
1E7
100
AcDbEntity
8
dimension flap panel
6
ByLayer
62
256
370
-1
100
AcDbDimension
10
-17.2924901186
20
4.23529865452e-015
30
0
11
-19.1674901186
21
70
31
0
70
33
71
5
3
Standard
53
0
210
0
220
0
230
1
100
AcDbAlignedDimension
13
0
23
140
33
0
14
0
24
0
34
0
0
DIMENSION
5
1E8
100
AcDbEntity
8
dimension flap panel
6
ByLayer
62
256
370
-1
100
AcDbDimension
10
122
20
80.9288537549
30
0
11
114
21
82.8038537549
31
0
70
33
71
5
3
Standard
53
0
210
0
220
0
230
1
100
AcDbAlignedDimension
13
106
23
92
33
0
14
122
24
92
34
0
0
DIMENSION
5
1E9
100
AcDbEntity
8
dimension flap panel
6
ByLayer
62
256
370
-1
100
AcDbDimension
10
180
20
128.31027668
30
0
11
159.625
21
130.18527668
31
0
70
33
71
5
3
Standard
53
0
210
0
220
0
230
1
100
AcDbAlignedDimension
13
139.25
23
115
33
0
14
180
24
115
34
0
0
DIMENSION
5
1EA
100
AcDbEntity
8
dimension flap panel
6
ByLayer
62
256
370
-1
100
AcDbDimension
10
180
20
-8.64624505929
30
0
11
90
21
-6.77124505929
31
0
70
33
71
5
3
Standard
53
0
210
0
220
0
230
1
100
AcDbAlignedDimension
13
0
23
0
33
0
14
180
24
0
34
0
0
DIMENSION
5
1EB
100
AcDbEntity
8
dimension flap panel
6
ByLayer
62
256
370
-1
100
AcDbDimension
10
191.254940711
20
-2.75657438143e-015
30
0
11
189.379940711
21
57.5
31
0
70
33
71
5
3
Standard
53
0
210
0
220
0
230
1
100
AcDbAlignedDimension
13
180
23
115
33
0
14
180
24
0
34
0
0
DIMENSION
5
1EC
100
AcDbEntity
8
dimension flap panel
6
ByLayer
62
256
370
-1
100
AcDbDimension
10
15
20
120
30
0
11
20
21
121.875
31
0
70
35
71
5
3
Standard
53
0
210
0
220
0
230
1
100
AcDbDiametricDimension
15
25
25
120
35
0
40
0
0
DIMENSION
5
1ED
100
AcDbEntity
8
dimension flap panel
6
ByLayer
62
256
370
-1
100
AcDbDimension
10
39
20
105
30
0
11
45
21
106.875
31
0
70
35
71
5
3
Standard
53
0
210
0
220
0
230
1
100
AcDbDiametricDimension
15
51
25
105
35
0
40
0
0
DIMENSION
5
1EE
100
AcDbEntity
8
dimension flap panel
6
ByLayer
62
256
370
-1
100
AcDbDimension
10
14.9009804864
20
105
30
0
11
20
21
106.875
31
0
70
35
71
5
3
Standard
53
0
210
0
220
0
230
1
100
AcDbDiametricDimension
15
25.0990195136
25
105
35
0
40
0
0
DIMENSION
5
1EF
100
AcDbEntity
8
dimension flap panel
6
ByLayer
62
256
370
-1
100
AcDbDimension
10
15
20
90
30
0
11
20
21
91.875
31
0
70
35
71
5
3
Standard
53
0
210
0
220
0
230
1
100
AcDbDiametricDimension
15
25
25
90
35
0
40
0
0
DIMENSION
5
1F0
100
AcDbEntity
8
dimension flap panel
6
ByLayer
62
256
370
-1
100
AcDbDimension
10
106
20
78.7984189723
30
0
11
88
21
80.6734189723
31
0
70
32
71
5
3
Standard
53
0
210
0
220
0
230
1
100
AcDbAlignedDimension
13
70
23
140
33
0
14
106
24
92
34
0
100
AcDbRotatedDimension
0
DIMENSION
5
1F1
100
AcDbEntity
8
dimension flap panel
6
ByLayer
62
256
370
-1
100
AcDbDimension
10
122
20
78.3557312253
30
0
11
130.625
21
80.2307312253
31
0
70
32
71
5
3
Standard
53
0
210
0
220
0
230
1
100
AcDbAlignedDimension
13
139.25
23
115
33
0
14
122
24
92
34
0
100
AcDbRotatedDimension
0
DIMENSION
5
1F2
100
AcDbEntity
8
dimension flap panel
6
ByLayer
62
256
370
-1
100
AcDbDimension
10
108.23715415
20
92
30
0
11
106.36215415
21
116
31
0
70
32
71
5
3
Standard
53
0
210
0
220
0
230
1
100
AcDbAlignedDimension
13
70
23
140
33
0
14
106
24
92
34
0
50
90
100
AcDbRotatedDimension
0
DIMENSION
5
1F3
100
AcDbEntity
8
dimension flap panel
6
ByLayer
62
256
370
-1
100
AcDbDimension
10
117.090909091
20
92
30
0
11
115.215909091
21
103.5
31
0
70
32
71
5
3
Standard
53
0
210
0
220
0
230
1
100
AcDbAlignedDimension
13
139.25
23
115
33
0
14
122
24
92
34
0
50
90
100
AcDbRotatedDimension
0
DIMENSION
5
1F4
100
AcDbEntity
8
dimension flap panel
6
ByLayer
62
256
370
-1
100
AcDbDimension
10
6.12303176911e-016
20
130
30
0
11
10
21
131.875
31
0
70
32
71
5
3
Standard
53
0
210
0
220
0
230
1
100
AcDbAlignedDimension
13
20
23
120
33
0
14
0
24
120
34
0
100
AcDbRotatedDimension
0
DIMENSION
5
1F5
100
AcDbEntity
8
dimension flap panel
6
ByLayer
62
256
370
-1
100
AcDbDimension
10
40
20
140
30
0
11
38.125
21
130
31
0
70
32
71
5
3
Standard
53
0
210
0
220
0
230
1
100
AcDbAlignedDimension
13
20
23
120
33
0
14
30
24
140
34
0
50
90
100
AcDbRotatedDimension
0
DIMENSION
5
1F6
100
AcDbEntity
8
dimension flap panel
6
ByLayer
62
256
370
-1
100
AcDbDimension
10
56
20
140
30
0
11
54.125
21
122.5
31
0
70
32
71
5
3
Standard
53
0
210
0
220
0
230
1
100
AcDbAlignedDimension
13
45
23
105
33
0
14
50
24
140
34
0
50
90
100
AcDbRotatedDimension
0
DIMENSION
5
1F7
100
AcDbEntity
8
dimension flap panel
6
ByLayer
62
256
370
-1
100
AcDbDimension
10
64
20
140
30
0
11
62.125
21
115
31
0
70
32
71
5
3
Standard
53
0
210
0
220
0
230
1
100
AcDbAlignedDimension
13
20
23
90
33
0
14
60
24
140
34
0
50
90
100
AcDbRotatedDimension
0
DIMENSION
5
1F8
100
AcDbEntity
8
dimension flap panel
6
ByLayer
62
256
370
-1
100
AcDbDimension
10
3.67381906147e-016
20
111
30
0
11
22.5
21
112.875
31
0
70
32
71
5
3
Standard
53
0
210
0
220
0
230
1
100
AcDbAlignedDimension
13
45
23
105
33
0
14
0
24
105
34
0
100
AcDbRotatedDimension
0
ENDBLK
5
67
330
65
100
AcDbEntity
8
0
100
AcDbBlockEnd
0
BLOCK
5
69
330
68
100
AcDbEntity
8
0
100
AcDbBlockBegin
2
radio_panel
70
0
10
0
20
0
3
radio_panel
1

0
IMAGE
5
1FB
100
AcDbEntity
8
aide
6
ByLayer
62
256
370
-1
100
AcDbRasterImage
10
30
20
30
30
0
11
0.3456
21
0
31
0
12
2.11611977941e-017
22
0.3456
32
0
13
491
23
794
340
1F9
70
1
280
0
281
50
282
50
283
0
360
1FA
0
LINE
5
1FC
100
AcDbEntity
8
radio panel
6
ByLayer
62
256
370
-1
100
AcDbLine
10
0
20
0
11
230
21
0
0
LINE
5
1FD
100
AcDbEntity
8
radio panel
6
ByLayer
62
256
370
-1
100
AcDbLine
10
230
20
0
11
230
21
350
0
LINE
5
1FE
100
AcDbEntity
8
radio panel
6
ByLayer
62
256
370
-1
100
AcDbLine
10
230
20
350
11
0
21
350
0
LINE
5
1FF
100
AcDbEntity
8
radio panel
6
ByLayer
62
256
370
-1
100
AcDbLine
10
0
20
350
11
0
21
0
0
DIMENSION
5
200
100
AcDbEntity
8
autre dimension
6
ByLayer
62
256
370
-1
100
AcDbDimension
10
230
20
370.788574219
30
0
11
115
21
372.663574219
31
0
70
33
71
5
3
Standard
53
0
210
0
220
0
230
1
100
AcDbAlignedDimension
13
0
23
350
33
0
14
230
24
350
34
0
0
DIMENSION
5
201
100
AcDbEntity
8
autre dimension
6
ByLayer
62
256
370
-1
100
AcDbDimension
10
253.295898437
20
-5.70566104891e-015
30
0
11
251.420898437
21
175
31
0
70
33
71
5
3
Standard
53
0
210
0
220
0
230
1
100
AcDbAlignedDimension
13
230
23
350
33
0
14
230
24
0
34
0
0
ENDBLK
5
6A
330
68
100
AcDbEntity
8
0
100
AcDbBlockEnd
0
ENDSEC
0
SECTION
2
ENTITIES
0
LINE
5
202
100
AcDbEntity
8
aide
6
ByLayer
62
256
370
-1
100
AcDbLine
10
0
20
170
11
1100
21
170
0
LINE
5
203
100
AcDbEntity
8
aide
6
ByLayer
62
256
370
-1
100
AcDbLine
10
280
20
0
11
280
21
530
0
INSERT
5
204
100
AcDbEntity
8
0
6
ByLayer
62
256
370
-1
100
AcDbBlockReference
2
back_panel
10
0
20
0
30
0
41
1
42
1
43
0
50
0
70
1
71
1
44
0
45
0
0
INSERT
5
205
100
AcDbEntity
8
instrument panel
6
ByLayer
62
256
370
-1
100
AcDbBlockReference
2
instrument_panel
10
55
20
180
30
0
41
1
42
1
43
0
50
0
70
1
71
1
44
0
45
0
0
LINE
5
206
100
AcDbEntity
8
aide
6
ByLayer
62
256
370
-1
100
AcDbLine
10
442
20
0
11
442
21
530
0
INSERT
5
207
100
AcDbEntity
8
switch panel
6
ByLayer
62
256
370
-1
100
AcDbBlockReference
2
switch_panel
10
46
20
30
30
0
41
1
42
1
43
0
50
0
70
1
71
1
44
0
45
0
0
INSERT
5
208
100
AcDbEntity
8
gauge panel
6
ByLayer
62
256
370
-1
100
AcDbBlockReference
2
gauges_panel
10
461
20
30
30
0
41
1
42
1
43
0
50
0
70
1
71
1
44
1
45
1
0
INSERT
5
209
100
AcDbEntity
8
flap panel
6
ByLayer
62
256
370
-1
100
AcDbBlockReference
2
flap_panel
10
711
20
30
30
0
41
1
42
1
43
0
50
0
70
1
71
1
44
1
45
1
0
LINE
5
20A
100
AcDbEntity
8
1
6
ByLayer
62
256
370
-1
100
AcDbLine
10
700
20
160
11
470
21
40
0
LINE
5
20B
100
AcDbEntity
8
1
6
ByLayer
62
256
370
-1
100
AcDbLine
10
470
20
160
11
700
21
40
0
LINE
5
20C
100
AcDbEntity
8
1
6
ByLayer
62
256
370
-1
100
AcDbLine
10
720
20
160
11
880
21
40
0
LINE
5
20D
100
AcDbEntity
8
1
6
ByLayer
62
256
370
-1
100
AcDbLine
10
880
20
130
11
720
21
40
0
INSERT
5
20E
100
AcDbEntity
8
engine panel
6
ByLayer
62
256
370
-1
100
AcDbBlockReference
2
engine_panel
10
457
20
160
30
0
41
1
42
1
43
0
50
0
70
1
71
1
44
1
45
1
0
INSERT
5
20F
100
AcDbEntity
8
engine panel
6
ByLayer
62
256
370
-1
100
AcDbBlockReference
2
engine_panel
10
457
20
160
30
0
41
1
42
1
43
0
50
0
70
1
71
1
44
1
45
1
0
INSERT
5
210
100
AcDbEntity
8
radio panel
6
ByLayer
62
256
370
-1
100
AcDbBlockReference
2
radio_panel
10
587
20
170
30
0
41
1
42
1
43
0
50
0
70
1
71
1
44
1
45
1
0
ENDSEC
0
SECTION
2
OBJECTS
0
DICTIONARY
5
C
330
0
100
AcDbDictionary
281
1
3
ACAD_GROUP
350
D
3
ACAD_IMAGE_DICT
350
211
0
DICTIONARY
5
D
330
C
100
AcDbDictionary
281
1
0
IMAGEDEF_REACTOR
5
109
330
10A
100
AcDbRasterImageDefReactor
90
2
330
10A
0
IMAGEDEF_REACTOR
5
1FA
330
1FB
100
AcDbRasterImageDefReactor
90
2
330
1FB
0
DICTIONARY
5
211
330
C
100
AcDbDictionary
281
1
3
pannea1
350
108
3
Stack Radio
350
1F9
0
IMAGEDEF
5
108
102
{ACAD_REACTORS
330
109
102
}
100
AcDbRasterImageDef
90
0
1
C:/Users/Jrme/Google Drive/SIMULATEUR/PLAN/pannea1.jpg
10
888
20
266
11
1
21
1
280
1
281
0
0
IMAGEDEF
5
1F9
102
{ACAD_REACTORS
330
1FA
102
}
100
AcDbRasterImageDef
90
0
1
C:/Users/Jrme/Google Drive/SIMULATEUR/PLAN/Stack Radio.jpg
10
491
20
794
11
1
21
1
280
1
281
0
0
ENDSEC
0
EOF
